<?xml version="1.0" encoding="utf-8"?>
<!-- Generator: Adobe Illustrator 24.0.0, SVG Export Plug-In . SVG Version: 6.00 Build 0)  -->
<svg version="1.1" id="Layer_1" xmlns="http://www.w3.org/2000/svg" xmlns:xlink="http://www.w3.org/1999/xlink" x="0px" y="0px"
	 viewBox="0 0 3000 2000" style="enable-background:new 0 0 3000 2000;" xml:space="preserve">
<style type="text/css">
	.st0{fill:#EBF2F9;}
	.st1{fill:#82B479;}
	.st2{fill:#A8D29F;}
	.st3{fill:#699DEE;}
	.st4{fill:#AFCDFB;}
	.st5{fill:#FFFFFF;}
	.st6{fill:#D86713;}
	.st7{fill:#F1A34F;}
	.st8{fill:#EE9849;}
	.st9{opacity:0.4;fill:#D86713;enable-background:new    ;}
	.st10{fill:#E9F3FE;}
	.st11{fill:#233862;}
	.st12{fill:#4A75CB;}
	.st13{fill:#FFB27D;}
	.st14{fill:#163560;}
	.st15{fill:#C0D8F9;}
	.st16{fill:#D4E3F4;}
	.st17{clip-path:url(#SVGID_2_);}
	.st18{fill:#E49963;}
	.st19{fill:#A8D2A0;}
	.st20{fill:#D68D5D;}
	.st21{fill:#2B478B;}
	.st22{fill:#E7F1FD;}
	.st23{fill:#C65447;}
	.st24{opacity:0.4;fill:#FFFFFF;enable-background:new    ;}
	.st25{fill:#283250;}
</style>
<title>8619 [Converted]</title>
<path class="st0" d="M327.5,355.9c0,0-290.9,53.4-383.6-148.7C-176.3-55.1,70.5-254,259.9-216.9c412.6,80.7,313.2-810,975.4-628.2
	c186.2,51.1,689.3-252.5,829.6,234.3c33.4,115.8,151.6,128.5,323.2,202c335.8,143.8,182.3,767.1-57.7,769.5S327.5,355.9,327.5,355.9
	z"/>
<rect x="1770.5" y="-279.2" class="st1" width="171.4" height="638.6"/>
<rect x="1690.4" y="-279.2" class="st2" width="125.9" height="638.6"/>
<circle class="st1" cx="1755.5" cy="291.7" r="28.1"/>
<rect x="2021.8" y="-279.2" class="st3" width="171.4" height="638.6"/>
<rect x="1941.8" y="-279.2" class="st4" width="125.9" height="638.6"/>
<circle class="st3" cx="2006.9" cy="291.7" r="28.1"/>
<rect x="1978.8" y="-214.2" class="st5" width="56.2" height="335.2"/>
<rect x="2270.3" y="-279.2" class="st6" width="171.4" height="638.6"/>
<rect x="2190.3" y="-279.2" class="st7" width="125.9" height="638.6"/>
<circle class="st6" cx="2255.4" cy="291.7" r="28.1"/>
<rect x="2227.2" y="-214.2" class="st5" width="56.2" height="335.2"/>
<rect x="1725.3" y="-209.9" class="st5" width="56.2" height="335.2"/>
<path class="st6" d="M1359.1-402.9l60.4,718.4c0,0,6.3,43.6-26.1,43.6c-53.3,0.1-265.1,0-265.1,0s40.1-9.1,39.6-29.5
	c-0.6-24-70.6-739.4-70.6-739.4L1359.1-402.9z"/>
<path class="st8" d="M1111.1,346.1c10.5,0,212.8,0.7,264.7,0c22.6-0.3,26.6-20.1,26.8-32.9c0.1-3.6-0.2-7.2-0.7-10.7l-1.6-18.7
	l-4-47.6l-3.5-42l-4.5-54l-3.8-45.6l-42.9-510.5l-261.8-6.8c0,0,29.5,299.4,50.4,517.3c2.3,24.3,4.6,47.6,6.6,69.3
	c0.7,6.9,1.3,13.7,1.9,20.3c1.9,20.6,3.7,39.6,5.2,56.3c0.8,8.8,1.6,17,2.2,24.5c2.7,29.4,4.2,48.2,4.3,51.7c0,2-0.2,3.9-0.5,5.8
	C1145.5,345.3,1115.1,346.1,1111.1,346.1z"/>
<polygon class="st7" points="738,-793.9 1994.8,-793.9 1847.6,-202.7 1827.4,-121.7 1758.9,153.6 485.4,153.6 "/>
<polygon class="st8" points="1994.8,-793.9 2015.2,-787.1 1786,174.2 1758.9,153.6 "/>
<polygon class="st6" points="1786,174.2 520.3,174.2 485.4,153.6 1758.9,153.6 "/>
<rect x="1067.5" y="346.4" class="st7" width="274" height="13"/>
<polygon class="st6" points="1137.2,174.2 1138.6,184.1 1396.3,236.2 1392.8,194.1 1391.1,174.2 "/>
<path class="st9" d="M1111.1,346.1c10.5,0,212.8,0.7,264.7,0c22.6-0.3,26.6-20.1,26.8-32.9l-256.5-48.3c2.7,29.4,4.2,48.2,4.3,51.7
	c0,2-0.2,3.9-0.5,5.8C1145.5,345.3,1115.1,346.1,1111.1,346.1z"/>
<polygon class="st9" points="1216,-32.5 1758.9,153.6 1805.3,-32.6 "/>
<polygon class="st7" points="738,-793.9 1994.8,-793.9 1805.4,-32.6 534.1,-32.4 "/>
<path class="st6" d="M1088.4,63.9c3.6-18.7,21.7-33.8,40.4-33.8s30.9,15.1,27.2,33.8s-21.7,33.8-40.4,33.8S1084.7,82.5,1088.4,63.9z
	"/>
<polygon class="st10" points="593.4,-65.4 1770.1,-65.4 1903.4,-596.3 1913.6,-637 1922.3,-671.7 1942.7,-753.1 783,-753.1 
	760.6,-671.7 751,-637 739.8,-596.3 "/>
<polygon class="st2" points="783,-753.1 1942.7,-753.1 1922.3,-671.7 760.6,-671.7 "/>
<path class="st10" d="M1887.1-726.5c5.6,0,9,4.6,7.6,10.2s-7.1,10.2-12.7,10.2s-9-4.6-7.6-10.2S1881.5-726.5,1887.1-726.5z"/>
<path class="st10" d="M1853.3-726.5c5.6,0,9,4.6,7.6,10.2s-7.1,10.2-12.7,10.2s-9-4.6-7.6-10.2S1847.7-726.5,1853.3-726.5z"/>
<path class="st10" d="M1804.1-716.3c1.4-5.6,7.1-10.2,12.7-10.2s9,4.6,7.6,10.2s-7.1,10.2-12.7,10.2S1802.7-710.7,1804.1-716.3z"/>
<g id="man">
	<path class="st11" d="M168.6,286.2c0,0-15,13.9-12.1,23.7s16.4,16.4,18.3,28.5s9.1,18.6,15.7,18.6h31.4c0,0,4.8-8.5-6.9-11
		s-16.1-16.7-15.4-29.9s-1.1-30.7-1.1-30.7l-24.8-5.8L168.6,286.2z"/>
	<path class="st11" d="M440.2,357h-83.3c-0.6-0.1-1.1-0.3-1.6-0.5c-5.5-2.8-3.8-24-3.2-30.6c0.1-1.2,0.2-1.9,0.2-1.9
		s29.2-23.4,33.2-5.5c0.1,0.6,0.3,1.1,0.4,1.7c5,16.7,27.7,24.4,40.8,26.5C436.9,348.3,439.5,354.1,440.2,357z"/>
	<path class="st3" d="M423.4-122.2c0,0-4.4,55.4-9.7,122c-7.1,90.4-15.6,201.5-16.5,222.6c-1.5,36.5-7.3,95-7.3,95
		s-13.9,13.9-41.7,8c0,0-24.7-83.4-31.8-171.7c-0.1-1.4-0.2-2.9-0.3-4.4c-6.6-89.9-16.8-279.1-16.8-279.1L423.4-122.2z"/>
	<path class="st12" d="M423.4-122.2c0,0-4.4,55.4-9.7,122l-97.2,153.8c-0.1-1.4-0.2-2.9-0.3-4.4c-6.6-89.9-16.8-279.1-16.8-279.1
		L423.4-122.2z"/>
	<path class="st3" d="M403.2-115.7c0,0-80,200.6-132.6,294.8s-69,120.6-69,120.6s-30.1-12.1-32.9-20.3c0,0,20.1-182,55.3-226.3
		C243.9,28,267.3-47.2,268.4-73.5s7.1-78.4,7.1-78.4L403.2-115.7z"/>
	<path class="st13" d="M484.1-171l4.6,9.1c0,0,23.3,3.3,16.8,27.5c0,0-3.4,10-9.9,6.8c-6.4-3.2-3.3-2.9-12.4-7.1
		s-14.5-12.4-12.5-19.9l-1.5-7.9L484.1-171z"/>
	<path class="st13" d="M362.1-425.3c3.6-21,3.7-33.5,3.7-33.5l-40.6-32.7c1.5,45-27.3,66.6-27.3,66.6s54.1,26.6,85.4,16.8
		C377.3-415,370.2-420.9,362.1-425.3z"/>
	<path class="st13" d="M375.4-459.5c0,0-51.6,8.6-56.5-23.7s-14.8-52.9,18-59.7s41,4.5,45.3,14.9S388.7-462.5,375.4-459.5z"/>
	<path class="st14" d="M319.2-480.9c0,0,1-43.2,48.1-50.1c32.2-4.8,12.7-31.7,9-35.9c0,0-24.6,4.7-49.9,10.2
		C273.5-545.1,313.6-487.3,319.2-480.9z"/>
	<path class="st1" d="M478.7-158.4c4.6-5,8.6-10.4,12-16.3c0,0-58.7-72.9-63.5-80.5c-4.8-7.6-40.4-128.8-40.4-128.8l-90.1-18.3
		c0,0,75.2,155.2,87.7,174.1c20.6,31.3,82.2,77.8,82.2,77.8C471.1-152.2,475.2-154.9,478.7-158.4z"/>
	<path class="st2" d="M426.9-117.7c-0.9,0.8-2.1,1.2-3.3,1.3c-11.7-0.2-46,6.4-74.9,3.4c-24.4-2.3-46-9.6-69.3-20
		c-3.1-1.4-10.2-5.2-10-8.6c0.1-3.8,0.5-9.2,1-16.1c1.6-24,4.5-65.2,1.7-112.7c-0.5-8.8-0.8-17.6-0.8-26.3
		c-0.2-64.4,12.3-121.4,38-140.6c2.2-1.6,15.9,5.3,28.2,11.4c11.4,5.6,19.4,5.5,30.2,3.3l14.2,10.3c13.2,12.2,27.6,28.8,33.8,54
		c5.3,21.5,8.5,60.1,10.2,100.2c0.8,18.2,1.4,36.5,1.6,53.9v0.6c0.2,1.7,0.2,3.6,0.2,5.3C428.3-153.7,427.7-118.3,426.9-117.7z"/>
	<path class="st1" d="M270.3-157.7c1.6-24,4.5-65.2,1.7-112.7c-0.5-8.8-0.8-17.6-0.8-26.3c10.7-25.9,19.4-44.8,19.4-44.8h27
		C317.7-341.4,337.4-206.5,270.3-157.7z"/>
	<path class="st13" d="M217.9-149.3l-5.1,8.8c0,0,10,21.2-13.8,29.2c0,0-10.2,2.6-11.1-4.5s0.6-4.3-0.9-14.3s2.4-18.9,9.8-21.3
		l5.8-5.6L217.9-149.3z"/>
	<path class="st2" d="M204.3-146.9c6.7,1.1,13.5,1.5,20.2,1.1c0,0,28.8-89,32.5-97.2c3.7-8.2,85.6-104.4,85.6-104.4l-34.1-85.4
		c0,0-88.6,148-97.6,168.7c-14.9,34.4-20,111.4-20,111.4C195-149.8,199.5-147.9,204.3-146.9z"/>
</g>
<polygon class="st4" points="1238.4,-185.4 689.1,-185.4 876.9,-945.1 1426.2,-945.1 "/>
<polygon class="st15" points="1156.4,-232.8 607,-232.8 794.8,-992.5 1344.2,-992.5 "/>
<polygon class="st16" points="1067.5,-286.9 518.1,-286.9 705.9,-1046.7 1255.3,-1046.7 "/>
<polygon class="st3" points="1333,-945.1 1159.2,-237.3 702.5,-232.8 1173,-222.4 "/>
<polygon class="st3" points="1241.7,-992.5 1076.6,-291.5 619.9,-286.9 1084.4,-275.5 "/>
<polygon class="st10" points="838.6,-783.4 685,-783.4 733.1,-976.4 886.7,-976.4 "/>
<polygon class="st4" points="1189.3,-949.7 914.1,-949.7 920.8,-976.4 1196.1,-976.4 "/>
<polygon class="st4" points="1176.9,-895 901.7,-895 908.4,-921.6 1183.7,-921.6 "/>
<polygon class="st4" points="1163.9,-840.2 888.7,-840.2 895.5,-866.9 1170.7,-866.9 "/>
<polygon class="st4" points="1148.7,-785.5 873.4,-785.5 880.2,-812.2 1155.5,-812.2 "/>
<polygon class="st4" points="1148.7,-728.5 644.8,-728.5 651.6,-755.2 1155.5,-755.2 "/>
<polygon class="st4" points="1135.2,-671.5 631.4,-671.5 638.1,-698.2 1142,-698.2 "/>
<polygon class="st4" points="1116.6,-607.3 612.7,-607.3 619.5,-634 1123.4,-634 "/>
<polygon class="st4" points="1099.7,-551.9 595.8,-551.9 602.6,-578.6 1106.5,-578.6 "/>
<g>
	<defs>
		<polygon id="SVGID_1_" points="838.6,-783.4 685,-783.4 733.1,-976.4 886.7,-976.4 		"/>
	</defs>
	<clipPath id="SVGID_2_">
		<use xlink:href="#SVGID_1_"  style="overflow:visible;"/>
	</clipPath>
	<g class="st17">
		<path class="st18" d="M852-764.2c0,0,9-4.1,12.5-2.9s13.1,5.4,12.8,9.5s-15.5,8.7-25.8,3.7S852-764.2,852-764.2z"/>
		<path class="st19" d="M854.7-752.9c-0.2,0.5-0.4,1-0.6,1.4c-3,4.9-53,5.1-58.7,1c-2.6-1.8-3.3-27.1-3.4-54.5
			c-0.1-33.9,0.9-70.9,0.9-70.9s19.5,9.1,20.5,20.2c0.9,11.2-7.3,78.2-1.6,82.3s32,4.6,40.8,7.2C852.5-766,856.3-758,854.7-752.9z"
			/>
		<path class="st14" d="M804.2-952.8c-3.4-3.6-9-3.9-12.6-4.2c0.9-0.5,1.9-0.9,2.9-0.9c-2.2-0.6-7.4,0.9-7.4,0.9s-17.4-12-29.3,11.4
			c0,0,1.7-1.7,4-3.5c-6.8,13.5-4.5,35.5,10.7,41.3C782.5-903.9,839.2-916.3,804.2-952.8z"/>
		<path class="st18" d="M793.5-870.2c0.1,0.1-10.6,4-17.8,0.9c-6.8-2.8-10.2-12.6-10.1-12.6c3.1-0.2,4.5-4.2,6.7-21.9l1.3,0.4
			l22.2,7.5c0,0-1.4,7.1-2.3,13.8C792.7-876.4,792.4-871,793.5-870.2z"/>
		<path class="st20" d="M795.8-895.9c0,0-1.4,7.1-2.3,13.8c-12.7-2-17.9-14.5-19.8-21.3L795.8-895.9z"/>
		<path class="st14" d="M771.6-906.1c0,0-5.3-11.4-5.7-20.6c-0.3-6.6,6.1-30,29.6-23.5c4.7,1.3,9.1,3.6,12.8,6.8
			c4.7,4.2,11.3,12.8,0.2,32.5l-3.1,6.7L771.6-906.1z"/>
		<path class="st18" d="M799.2-889c0,0-30.2-3.4-27.8-22.2c2.4-18.8,0.1-31.8,19.5-30.4s22.2,9,22.9,15.5
			C814.6-919.6,807.1-888.6,799.2-889z"/>
		<path class="st1" d="M801.2-846.5c-0.3-2.2,4.5-3.2,5.3-1.2c1.6,3.8,1.4,8.4,1.8,12.1c1,10.5-3.1,24.2-3.1,24.2L801.2-846.5z"/>
		<path class="st14" d="M814.3-936.6c-3.9-6.2-7.6-5.5-9.8-4c-5.3-10.6-27.6,0.8-27.6,0.8c-2.4,8-7.5,15-14.5,19.6
			c0,0,5,4.1,18.1,2.5c10.3-1.3,19.3-14.5,22.7-20.1c1.6,1.8,4.9,6,5.6,9.7c0.9,5,0.3,14.9,3.2,14.9
			C812.1-913.1,820.2-927.3,814.3-936.6z"/>
		<path class="st5" d="M794-901.2c0,0,0.3,2.5,6.2,2.9c0,0,5,0.3,5.2-2.3C805.4-900.7,800.9-903.1,794-901.2z"/>
		<path class="st1" d="M854.7-752.9c-0.2,0.5-0.4,1-0.6,1.4c-3,4.9-53,5.1-58.7,1c-2.6-1.8-3.4-33.2,3.7-60.3
			c1.7,16.2-1.4,48.7,7.1,51.3C815.8-756.4,842-756.4,854.7-752.9z"/>
		<path class="st19" d="M806.9-809.9c-19.8,57.2-10.8,67.6-17.9,72.5c0,0-5.9,1.7-6,1.7c-7.3,4.9-6.6-2.1-28.5,4.2
			c-10.5,3-23.9,7-35.4,9c-3.9,0.7-7.9,1.1-11.9,1.1c-6.8-0.1-11.6-1.9-12.6-6.6c-3-13.7,24.1-45.5,21.6-70c0-0.2,0-0.4-0.1-0.6
			c-0.1-2.4,0.1-4.8,0.6-7.1c2.8-13.1,13.6-31.3,24.4-46.6c11.9-16.9,23.8-30.3,24.6-29.7c23.3,18.3,27.2,6.1,27.2,6.1
			S813.6-829.4,806.9-809.9z"/>
		<path class="st1" d="M785.1-736.2L785.1-736.2c-7.3,4.9-8.7-1.5-30.7,4.8c-10.5,3-23.9,7-35.4,9c-5.8,0.3-10.1,0.6-11.9,1.1
			c-6.8-0.1-11.6-1.9-12.6-6.6c-3-13.7,24.1-45.5,21.6-70c0-0.2,0-0.4-0.1-0.6c-0.2-2.4,0-4.8,0.6-7.1c2.5-9.9,11.3-19.9,21.8-34.7
			c4.8,6.7,47.8,5.2,30.3,62.5C763.3-760.3,784.3-750.4,785.1-736.2z"/>
		<path class="st18" d="M782.7-733.4c0,0,9.6-1,13.6,1.3s11.9,7.8,10.8,10s-11.3,2.2-15.3-0.7s-7.5-0.3-12.4-2.7
			S782.7-733.4,782.7-733.4z"/>
		<path class="st19" d="M765.6-881.9c0,0-34.3-4-42.6,11.7s-13.9,74-7.2,92.6s54.6,48.8,60.2,50.5s10.2-6.6,10.1-7.6
			s-47.8-51.1-47-55.5S765.6-881.9,765.6-881.9z"/>
	</g>
</g>
<polygon class="st18" points="1911.2,267 1899,318.6 1880.6,318.5 1879.9,267 "/>
<polygon class="st18" points="1756.9,269.2 1722,318.6 1708.4,301.2 1729.4,262.4 "/>
<path class="st14" d="M1847.5-410.9c6.3-3.6,13.9-4,19.2-3.7c-1.2-1-2.5-1.6-4-1.9c3.3-0.5,10.6,2.8,10.6,2.8
	c45.8-17.6,53,49.8,52,65.5s15.4,20.8,39.2,33.1c45.5,23.5,49.4,55.1,49.4,55.1c-0.4,0.2-0.7,0.4-1.1,0.7c-2.3-3.8-6.9-11-10.8-12.1
	c0.1,0.3,4.6,9.9,6.3,15.3c-13.4,10.2-38.5,32.8-56,48.8c0.1-3.1,0-7.6-1.2-9.9l-2.2,13c-9.4,8.6-15.8,14.7-15.8,14.7
	c1.2-12.7-57.3-79.5-87.7-99.5c-7.4-10.9-10.1-30.2-10.3-31.7c1.3,15.3,3.9,23.9,6.2,28.7C1815.7-315.8,1830.7-401.3,1847.5-410.9z"
	/>
<path class="st18" d="M1847.3-288c-0.1,0.1,14.7,7.8,25.9,4.7c10.5-2.9,17.4-16.5,17.2-16.5c-4.4-0.9-5.7-7-5.6-33.3l-2,0.4
	l-33.9,6.7c0,0,0.8,10.7,0.8,20.7C1849.7-296.9,1849.2-288.9,1847.3-288z"/>
<path class="st20" d="M1848.9-326c0,0,0.8,10.7,0.8,20.7c19-0.5,29-17.8,33.1-27.4L1848.9-326z"/>
<path class="st14" d="M1886.3-336.4c0,0,9.9-15.7,12.3-29.1c1.7-9.6-3.2-45.1-38.9-40c-7.2,1-14.1,3.6-20.1,7.6
	c-7.8,5.2-18.9,16.5-6.4,47.5l3.3,10.5L1886.3-336.4z"/>
<path class="st21" d="M1714,287.6l17.9,0.6l19.4,0.6c0,0,44.9-50,70-130c0.6-1.9,1.2-3.8,1.9-5.7c13.8-40.2,42.3-90.6,57.4-136.2
	c2.4-7.3,4.5-14.1,6.5-20.6c0.6-2.1,1.2-4.1,1.8-6.1c11.1-38.5,14.3-63.8,17.3-90.9l-108.7,0.9C1797.4-99.8,1779.9,84.7,1714,287.6z
	"/>
<path class="st22" d="M1812.7-162.3c0.3,51.7-7.6,73.9-7.6,73.9s46.5,23.6,101.8,6.2c0.6-0.2,41.6-8.4,41.6-8.4
	c-0.9-2.1-12.2-37.9-13.1-39.8c-11.7-25.1-13.3-37.2-14.7-44.9c-2.6-14.4-2.6-29.3-1.4-43.3c2.2-23.1,6.7-45.8,13.4-68
	c-15.1-3.4-29.2-9.5-44.9-15.3c-3.6,4.5-14.6,9.2-24.2,9c-11-0.2-14.6-5-14-10.1c-11.7,6.5-21.1,12.7-21.1,12.7
	c-10,17.3-30.2,34.2-31.7,60.7C1796.6-223.1,1812.7-163.7,1812.7-162.3z"/>
<path class="st3" d="M1749.6-239.1c16-18.6,57.3-59,99.9-64l-36.8,71.7c0,0-2.1,12.3-13,19.4c-26.7,17.6-60.6,25.3-60.6,25.3
	s-23-10-54.4-33c-9.9-7.2-27.2-34.8-27.2-34.8l4.7-15.7c0,0,29.4,16.5,39.9,21.2c6,2.7,19.8,9.2,29.5,13.7
	C1737.8-232.3,1745.2-233.9,1749.6-239.1z"/>
<path class="st18" d="M1842.5-316.5c0,0,44.8,0.7,44.9-27.2s5.8-46.6-22.8-48.3s-34.2,9-36.5,18.3S1830.9-317.4,1842.5-316.5z"/>
<path class="st14" d="M1844.2-392.7c0,0,12.3,32.8,31.1,37.6s27-0.2,27-0.2c-9.3-8.2-15.5-19.3-17.4-31.5
	C1884.9-386.8,1853.5-408.2,1844.2-392.7z"/>
<path class="st14" d="M1847.3-390c0,0-9.2,7.3-11.4,14.4s-3.2,21.8-7.5,21.3c0,0-9.3-22.3,1.1-34.9
	C1840.5-402.5,1847.3-390,1847.3-390z"/>
<path class="st18" d="M1662.2-270.2c0,0-6.3-22.8-31.3-19.5c-2.9,0.9-11.3,4.2-5.9,13.2c4,6.6,5.7,3.2,11.9,12.1
	c6.2,8.9,13,10.9,20.7,9.8L1662.2-270.2z"/>
<path class="st18" d="M1899.5,315.7c-0.8,7.1,0,14.4,2.3,21.2c0,0,3,13.7-10.5,13.9s-16.8-1-15.3-9.4s4.4-22.9,4.4-22.9
	L1899.5,315.7z"/>
<path class="st6" d="M1874.9,356.6c0,0,0.3,0.2,0.9,0.4h26.4c0.3-0.1,0.5-0.3,0.7-0.4c1.5-6.9-1-19.8-1-19.8
	c-15.3,14-24.8-0.3-24.8-0.3C1874.6,342.5,1874.9,356.6,1874.9,356.6z"/>
<path class="st18" d="M1676,342.8c0,0,24.8-27.6,32.5-41.6l18.5,9.5l-41.3,38.8l-9.7-1.3L1676,342.8z"/>
<path class="st6" d="M1660.5,357.1h34c3.3-2.4,6.3-8.1,10.1-15.7c2-4,6.6-6.3,11.3-7.5v23h7.1l6.7-24.4c4.4-8.1,0.3-15.4-2.8-21.8
	c-3.6,0-13.3,2.4-31.6,23.1c-6,6.8-12.7,9.2-19.3,9c-0.1,0.1-0.2,0.1-0.3,0.1C1664.6,347.9,1661.5,354.1,1660.5,357.1z"/>
<path class="st3" d="M1849.7-303.1c0,0-25.9,64.1-26.7,77s-3,212-3,212s1.5,9.2-16,5.3s-22.1-7.6-22.1-7.6s16.8-122.8,12.2-165.5
	s35.1-112.4,35.1-112.4L1849.7-303.1z"/>
<path class="st11" d="M1731.9,288.2l19.4,0.6c0,0,44.9-50,70-130c0.6-1.9,1.2-3.8,1.9-5.7c13.8-40.2,42.3-90.6,57.4-136.2
	c2.4-7.3,4.5-14.1,6.5-20.6c0.6-2.1,1.2-4.1,1.8-6.1l-16-12.2c0,0-48,77.8-62.9,151C1797.1,192.6,1745.3,269.1,1731.9,288.2z"/>
<path class="st21" d="M1871.2,135.8c-0.3,35.6,1.5,117.5,6.2,151.3h17.2c9.5,0,14.3-0.1,14.3-0.1c11.6-58.9,19.9-107.7,25.9-149.7
	c4.9-34.5,9.3-64,12.7-89.5c3.4-25.6,5.8-47,6.6-65.2c0.1-2.9,0.2-5.6,0.3-8.3s0.1-5.3,0-7.9l-93.8-9.2
	C1861.7,19.7,1871.4,115.1,1871.2,135.8z"/>
<path class="st11" d="M1894.5,287.2c9.5,0,14.3-0.1,14.3-0.1c11.6-58.9,19.9-107.7,25.9-149.7c4.9-34.5,9.3-64,12.7-89.5
	c3.4-25.6,5.8-47,6.6-65.2L1919.6,3c0,0,22,7.8,13.6,66.5S1906.3,278.9,1894.5,287.2z"/>
<path class="st3" d="M1890.2-17.9c0,0,6.6,23.9,29.5,20.8s55.4-16.8,55.4-16.8s-9.8-30.9-21.9-71.5
	c-14.7-49.1-32.9-112.5-41.5-152.4c-2.1-9-3.6-18.1-4.7-27.2l-19-36.8c0,0-28.3,63.5-29.8,79.5S1890.2-17.9,1890.2-17.9z"/>
<path class="st12" d="M1891.2-188.7c1,25.9,7.1,76.3,61.5,103.2l0.4,0.2c-14.7-49.1-32.9-112.5-41.5-152.4
	C1901.6-222.8,1890.6-203,1891.2-188.7z"/>
<rect x="1598.6" y="-405.7" transform="matrix(0.7071 -0.7071 0.7071 0.7071 724.5088 1034.2891)" class="st21" width="24.3" height="96.5"/>
<path class="st23" d="M1629.7-332.5l6-6c11.8-11.8,30.9-11.8,42.7,0L2012.2-4.6c11.8,11.8,11.8,30.9,0,42.7l-6,6
	c-11.8,11.8-30.9,11.8-42.7,0l-333.9-333.9C1617.9-301.6,1617.9-320.7,1629.7-332.5z"/>
<path class="st23" d="M1172.5-795.6c-111.4,111.5-111.4,292.1,0,403.6s292.2,111.4,403.6,0s111.4-292.1,0-403.6
	S1284-907.1,1172.5-795.6z M1553.9-414.3c-99.2,99.2-260,99.2-359.1,0s-99.2-260,0-359.1s260-99.2,359.1,0
	S1653.1-513.4,1553.9-414.3L1553.9-414.3z"/>
<path class="st18" d="M1913-224.7l-25.1-77.2c0.1,0,31.6,9.4,47.5,17.4c0,0,9.9,12.8,16.1,42.3c0,0,6.5,70.9-8,96.8
	c0,0-45.8,9.2-119-16V-178c0,0,80.1,4.2,96.5,6.1L1913-224.7z"/>
<path class="st3" d="M1887.9-301.8c0,0,46.4,3.3,57.6,28.2s14.8,107.8,0.5,132.2c0,0-19.6,5.6-54.3-0.9l-1.3-0.2
	c0,0-11.1-27.1-1.1-32.4c0,0,29.2,1.5,26.2-8.1S1887.9-301.8,1887.9-301.8z"/>
<path class="st18" d="M1832.8-173.6c0,0-6.4-7.7-7.8-15.6s-5.6-13.8-16.6-15.2s-15.8-1.6-15.7,1.5s9,24.8,24.8,37.7
	S1832.8-173.6,1832.8-173.6z"/>
<path class="st24" d="M1486.8-823.3l-340.1,340.1c5.5,11.2,11.9,22,19,32.2L1519-804.3C1508.8-811.5,1498-817.8,1486.8-823.3z"/>
<path class="st24" d="M1463.5-833.4c-28.5-10.6-58.6-16-89-16c-140.3,0-254,113.7-254,253.9c0,30.4,5.4,60.5,16,89L1463.5-833.4z"/>
<path class="st24" d="M1262-367.8c35,17.3,73.5,26.3,112.5,26.2c140.3,0,253.9-113.7,253.9-254c0-39-8.9-77.5-26.2-112.5L1262-367.8
	z"/>
<path class="st25" d="M-41.5,361.7h2577.4c1.3,0,2.3-1,2.3-2.3l0,0c0-1.3-1-2.3-2.3-2.3H-41.5c-1.3,0-2.3,1-2.3,2.3l0,0
	C-43.8,360.7-42.8,361.7-41.5,361.7z"/>
</svg>
