<svg id="Layer_1" data-name="Layer 1" xmlns="http://www.w3.org/2000/svg" xmlns:xlink="http://www.w3.org/1999/xlink" viewBox="0 0 2670.01 1408.98"><defs><style>.cls-1{fill:none;}.cls-2{fill:#ebf2f9;}.cls-3{fill:#82b479;}.cls-4{fill:#a8d29f;}.cls-5{fill:#699dee;}.cls-6{fill:#afcdfb;}.cls-26,.cls-7{fill:#fff;}.cls-11,.cls-8{fill:#d86713;}.cls-9{fill:#f1a34f;}.cls-10{fill:#ee9849;}.cls-11,.cls-26{opacity:0.4;isolation:isolate;}.cls-12{fill:#e9f3fe;}.cls-13{fill:#233862;}.cls-14{fill:#4a75cb;}.cls-15{fill:#ffb27d;}.cls-16{fill:#163560;}.cls-17{fill:#c0d8f9;}.cls-18{fill:#d4e3f4;}.cls-19{clip-path:url(#clip-path);}.cls-20{fill:#e49963;}.cls-21{fill:#a8d2a0;}.cls-22{fill:#d68d5d;}.cls-23{fill:#2b478b;}.cls-24{fill:#e7f1fd;}.cls-25{fill:#c65447;}.cls-27{fill:#283250;}</style><clipPath id="clip-path" transform="translate(87.84 1046.69)"><polygon class="cls-1" points="838.59 -783.39 684.96 -783.39 733.05 -976.38 886.68 -976.38 838.59 -783.39"/></clipPath></defs><title>search_icon</title><path class="cls-2" d="M327.47,355.9S36.54,409.32-56.14,207.17C-176.31-55.11,70.54-254,259.93-216.92c412.61,80.73,313.25-810,975.43-628.18,186.18,51.12,689.27-252.52,829.57,234.34,33.37,115.77,151.57,128.52,323.17,202,335.84,143.77,182.28,767.1-57.69,769.55S327.47,355.9,327.47,355.9Z" transform="translate(87.84 1046.69)"/><rect class="cls-3" x="1858.3" y="767.48" width="171.37" height="638.59"/><rect class="cls-4" x="1778.28" y="767.48" width="125.92" height="638.59"/><circle class="cls-3" cx="1843.36" cy="1338.42" r="28.11"/><rect class="cls-5" x="2109.68" y="767.48" width="171.37" height="638.59"/><rect class="cls-6" x="2029.68" y="767.48" width="125.92" height="638.59"/><circle class="cls-5" cx="2094.75" cy="1338.42" r="28.11"/><rect class="cls-7" x="2066.64" y="832.47" width="56.22" height="335.18"/><rect class="cls-8" x="2358.13" y="767.48" width="171.37" height="638.59"/><rect class="cls-9" x="2278.11" y="767.48" width="125.92" height="638.59"/><circle class="cls-8" cx="2343.19" cy="1338.42" r="28.11"/><rect class="cls-7" x="2315.08" y="832.47" width="56.22" height="335.18"/><rect class="cls-7" x="1813.14" y="836.75" width="56.22" height="335.18"/><path class="cls-8" d="M1359.06-402.95l60.42,718.43s6.33,43.55-26.06,43.63c-53.26.12-265.1,0-265.1,0s40.08-9.07,39.6-29.47c-.57-24-70.62-739.39-70.62-739.39Z" transform="translate(87.84 1046.69)"/><path class="cls-10" d="M1111.13,346.07c10.47,0,212.81.67,264.68,0,22.6-.28,26.56-20.1,26.75-32.92a62.93,62.93,0,0,0-.68-10.7l-1.58-18.67-4-47.59-3.54-42-4.54-54-3.83-45.61-42.93-510.49-261.77-6.8s29.5,299.37,50.37,517.29c2.33,24.28,4.55,47.56,6.6,69.29.66,6.94,1.3,13.73,1.92,20.33,1.94,20.62,3.71,39.55,5.24,56.27.82,8.81,1.57,17,2.24,24.5,2.66,29.39,4.22,48.15,4.25,51.72a29.78,29.78,0,0,1-.51,5.82C1145.54,345.32,1115.06,346.07,1111.13,346.07Z" transform="translate(87.84 1046.69)"/><polygon class="cls-9" points="825.88 252.79 2082.61 252.79 1935.44 843.97 1915.28 924.94 1846.73 1200.29 573.23 1200.29 825.88 252.79"/><polygon class="cls-10" points="2082.61 252.79 2103.01 259.59 1873.85 1220.86 1846.73 1200.3 2082.61 252.79"/><polygon class="cls-8" points="1873.85 1220.86 608.18 1220.86 573.23 1200.3 1846.73 1200.3 1873.85 1220.86"/><rect class="cls-9" x="1155.35" y="1393.05" width="274.04" height="13.02"/><polygon class="cls-8" points="1225.01 1220.86 1226.43 1230.81 1484.14 1282.88 1480.61 1240.83 1478.92 1220.86 1225.01 1220.86"/><path class="cls-11" d="M1111.13,346.07c10.47,0,212.81.67,264.68,0,22.6-.28,26.56-20.1,26.75-32.92l-256.5-48.26c2.66,29.39,4.22,48.15,4.25,51.72a29.78,29.78,0,0,1-.51,5.82C1145.54,345.32,1115.06,346.07,1111.13,346.07Z" transform="translate(87.84 1046.69)"/><polygon class="cls-11" points="1303.85 1014.15 1846.73 1200.3 1893.1 1014.04 1303.85 1014.15"/><polygon class="cls-9" points="825.88 252.79 2082.61 252.79 1893.21 1014.04 621.98 1014.29 825.88 252.79"/><path class="cls-8" d="M1088.37,63.86C1092,45.18,1110.09,30,1128.76,30s30.87,15.14,27.24,33.82-21.71,33.81-40.38,33.81S1084.74,82.53,1088.37,63.86Z" transform="translate(87.84 1046.69)"/><polygon class="cls-12" points="681.25 981.29 1857.93 981.29 1991.19 450.43 2001.4 409.73 2010.12 375 2030.56 293.58 870.83 293.58 848.39 375 838.82 409.73 827.6 450.43 681.25 981.29"/><polygon class="cls-4" points="870.83 293.58 2030.56 293.58 2010.12 375 848.39 375 870.83 293.58"/><path class="cls-12" d="M1887.09-726.49c5.63,0,9,4.56,7.64,10.18s-7.09,10.18-12.71,10.18-9-4.56-7.64-10.18S1881.47-726.49,1887.09-726.49Z" transform="translate(87.84 1046.69)"/><path class="cls-12" d="M1853.28-726.49c5.62,0,9,4.56,7.64,10.18s-7.1,10.18-12.72,10.18-9-4.56-7.64-10.18S1847.65-726.49,1853.28-726.49Z" transform="translate(87.84 1046.69)"/><path class="cls-12" d="M1804.14-716.31c1.41-5.62,7.1-10.18,12.72-10.18s9,4.56,7.64,10.18-7.09,10.18-12.72,10.18S1802.74-710.68,1804.14-716.31Z" transform="translate(87.84 1046.69)"/><g id="man"><path class="cls-13" d="M168.62,286.19s-15,13.88-12.06,23.74,16.44,16.44,18.27,28.5,9.13,18.63,15.71,18.63h31.35s4.84-8.48-6.85-11-16.1-16.72-15.37-29.88-1.1-30.68-1.1-30.68l-24.84-5.85Z" transform="translate(87.84 1046.69)"/><path class="cls-13" d="M440.18,357H356.93a6.66,6.66,0,0,1-1.63-.49c-5.55-2.77-3.82-24-3.15-30.58.13-1.22.23-1.94.23-1.94s29.23-23.37,33.24-5.47c.13.56.28,1.11.44,1.65,5.05,16.74,27.74,24.36,40.85,26.48C436.9,348.32,439.54,354.12,440.18,357Z" transform="translate(87.84 1046.69)"/><path class="cls-5" d="M423.43-122.25S419-66.87,413.77-.25c-7.09,90.43-15.61,201.51-16.46,222.55-1.46,36.54-7.31,95-7.31,95s-13.87,13.89-41.65,8c0,0-24.74-83.43-31.81-171.72-.11-1.44-.22-2.9-.33-4.36-6.58-89.87-16.8-279.11-16.8-279.11Z" transform="translate(87.84 1046.69)"/><path class="cls-14" d="M423.43-122.25S419-66.87,413.77-.25l-97.23,153.8c-.11-1.44-.22-2.9-.33-4.36-6.58-89.87-16.8-279.11-16.8-279.11Z" transform="translate(87.84 1046.69)"/><path class="cls-5" d="M403.16-115.68s-80,200.56-132.62,294.82-69,120.56-69,120.56-30.14-12.06-32.88-20.28c0,0,20.11-182,55.34-226.32C243.91,28,267.3-47.18,268.39-73.49s7.13-78.36,7.13-78.36Z" transform="translate(87.84 1046.69)"/><path class="cls-15" d="M484.07-171l4.57,9.11s23.26,3.25,16.85,27.49c0,0-3.44,10-9.86,6.82s-3.25-2.89-12.44-7.13-14.51-12.41-12.46-19.9l-1.47-7.93Z" transform="translate(87.84 1046.69)"/><path class="cls-15" d="M362.12-425.27c3.56-21,3.67-33.45,3.67-33.45L325.2-491.43c1.51,45-27.32,66.61-27.32,66.61S352-398.19,383.24-408A75.06,75.06,0,0,0,362.12-425.27Z" transform="translate(87.84 1046.69)"/><path class="cls-15" d="M375.35-459.46s-51.64,8.58-56.49-23.66-14.77-52.85,18-59.69,41,4.49,45.28,14.86S388.66-462.52,375.35-459.46Z" transform="translate(87.84 1046.69)"/><path class="cls-16" d="M319.2-480.9s1.05-43.19,48.1-50.12c32.23-4.75,12.71-31.68,9-35.94,0,0-24.64,4.7-49.86,10.23C273.54-545.11,313.61-487.32,319.2-480.9Z" transform="translate(87.84 1046.69)"/><path class="cls-3" d="M478.65-158.37a88.35,88.35,0,0,0,12-16.31S432-247.58,427.2-255.14s-40.4-128.81-40.4-128.81l-90.11-18.26S371.9-247,384.36-228.11c20.6,31.26,82.2,77.79,82.2,77.79A37,37,0,0,0,478.65-158.37Z" transform="translate(87.84 1046.69)"/><path class="cls-4" d="M426.88-117.68a5.05,5.05,0,0,1-3.29,1.26c-11.74-.16-46,6.36-74.94,3.38-24.43-2.34-46-9.58-69.25-20-3.09-1.38-10.18-5.17-10-8.62.1-3.77.48-9.24,1-16.13,1.64-24,4.5-65.17,1.71-112.72-.5-8.85-.76-17.63-.79-26.28-.24-64.43,12.31-121.43,38-140.61,2.19-1.57,15.87,5.33,28.24,11.43,11.43,5.64,19.43,5.51,30.23,3.32L382-412.35c13.15,12.21,27.56,28.81,33.82,54,5.33,21.45,8.45,60.13,10.18,100.2.78,18.16,1.41,36.49,1.57,53.86v.63c.15,1.72.15,3.6.15,5.33C428.29-153.68,427.66-118.27,426.88-117.68Z" transform="translate(87.84 1046.69)"/><path class="cls-3" d="M270.33-157.68c1.64-24,4.5-65.17,1.71-112.72-.5-8.85-.76-17.63-.79-26.28,10.69-25.94,19.43-44.76,19.43-44.76h27S337.4-206.49,270.33-157.68Z" transform="translate(87.84 1046.69)"/><path class="cls-15" d="M217.88-149.34l-5.12,8.82s10,21.23-13.76,29.17c0,0-10.23,2.58-11.1-4.52s.63-4.3-.86-14.32,2.43-18.93,9.82-21.32l5.83-5.58Z" transform="translate(87.84 1046.69)"/><path class="cls-4" d="M204.31-146.93a88.46,88.46,0,0,0,20.23,1.13s28.82-89,32.53-97.17,85.61-104.39,85.61-104.39l-34.14-85.38S220-284.74,211-264C196.1-229.63,191-152.6,191-152.6A36.87,36.87,0,0,0,204.31-146.93Z" transform="translate(87.84 1046.69)"/></g><polygon class="cls-6" points="1326.26 861.32 776.93 861.32 964.72 101.57 1514.05 101.57 1326.26 861.32"/><polygon class="cls-17" points="1244.21 813.92 694.88 813.92 882.67 54.17 1432 54.17 1244.21 813.92"/><polygon class="cls-18" points="1155.3 759.74 605.97 759.74 793.76 0 1343.09 0 1155.3 759.74"/><polygon class="cls-5" points="1420.81 101.57 1247.01 809.37 790.32 813.92 1260.8 824.27 1420.81 101.57"/><polygon class="cls-5" points="1329.57 54.17 1164.45 755.2 707.76 759.74 1172.2 771.22 1329.57 54.17"/><polygon class="cls-12" points="926.43 263.29 772.81 263.29 820.9 70.3 974.53 70.3 926.43 263.29"/><polygon class="cls-6" points="1277.16 96.96 1001.91 96.96 1008.68 70.3 1283.93 70.3 1277.16 96.96"/><polygon class="cls-6" points="1264.75 151.7 989.49 151.7 996.27 125.04 1271.52 125.04 1264.75 151.7"/><polygon class="cls-6" points="1251.77 206.44 976.51 206.44 983.29 179.78 1258.54 179.78 1251.77 206.44"/><polygon class="cls-6" points="1236.53 261.18 961.28 261.18 968.05 234.52 1243.3 234.52 1236.53 261.18"/><polygon class="cls-6" points="1236.53 318.18 732.65 318.18 739.43 291.51 1243.3 291.51 1236.53 318.18"/><polygon class="cls-6" points="1223.08 375.17 719.2 375.17 725.98 348.51 1229.85 348.51 1223.08 375.17"/><polygon class="cls-6" points="1204.46 439.36 700.58 439.36 707.35 412.7 1211.23 412.7 1204.46 439.36"/><polygon class="cls-6" points="1187.53 494.78 683.65 494.78 690.42 468.12 1194.3 468.12 1187.53 494.78"/><g class="cls-19"><path class="cls-20" d="M852-764.2s9-4.11,12.53-2.86,13.06,5.37,12.84,9.5-15.52,8.71-25.75,3.7S852-764.2,852-764.2Z" transform="translate(87.84 1046.69)"/><path class="cls-21" d="M854.68-752.89a6,6,0,0,1-.64,1.43c-3,4.88-53,5.13-58.68,1-2.55-1.84-3.33-27.1-3.41-54.47-.1-33.85.87-70.92.87-70.92s19.54,9.07,20.49,20.23-7.26,78.23-1.55,82.33,32,4.63,40.81,7.21C852.54-766,856.3-758,854.68-752.89Z" transform="translate(87.84 1046.69)"/><path class="cls-16" d="M804.15-952.76c-3.41-3.56-9-3.89-12.59-4.15a6.33,6.33,0,0,1,2.89-.94c-2.17-.61-7.39.94-7.39.94s-17.44-12-29.28,11.43c0,0,1.73-1.66,4-3.5-6.83,13.47-4.54,35.48,10.72,41.32C782.48-903.86,839.17-916.3,804.15-952.76Z" transform="translate(87.84 1046.69)"/><path class="cls-20" d="M793.54-870.23c.1.06-10.56,4-17.8.93-6.81-2.85-10.24-12.6-10.14-12.61,3.07-.21,4.46-4.2,6.69-21.87l1.32.44,22.15,7.45s-1.45,7.09-2.33,13.82C792.72-876.41,792.36-871,793.54-870.23Z" transform="translate(87.84 1046.69)"/><path class="cls-22" d="M795.8-895.89s-1.45,7.09-2.33,13.82c-12.68-2-17.9-14.48-19.82-21.27Z" transform="translate(87.84 1046.69)"/><path class="cls-16" d="M771.62-906.12s-5.3-11.4-5.73-20.61c-.31-6.58,6.05-30,29.56-23.46a32.94,32.94,0,0,1,12.84,6.85c4.74,4.19,11.27,12.75.18,32.46l-3.09,6.74Z" transform="translate(87.84 1046.69)"/><path class="cls-20" d="M799.22-889s-30.16-3.41-27.75-22.16.14-31.82,19.5-30.44,22.17,9,22.89,15.47S807.13-888.56,799.22-889Z" transform="translate(87.84 1046.69)"/><path class="cls-3" d="M801.2-846.49c-.25-2.21,4.47-3.23,5.32-1.18,1.61,3.83,1.43,8.38,1.8,12.07,1,10.53-3.14,24.22-3.14,24.22Z" transform="translate(87.84 1046.69)"/><path class="cls-16" d="M814.32-936.63c-3.92-6.23-7.59-5.46-9.78-4-5.25-10.56-27.63.83-27.63.83a35.92,35.92,0,0,1-14.45,19.64s5,4.1,18.11,2.49c10.29-1.27,19.35-14.5,22.74-20.08,1.58,1.83,4.89,6,5.55,9.74.88,5,.28,14.88,3.19,14.92C812.05-913.12,820.2-927.26,814.32-936.63Z" transform="translate(87.84 1046.69)"/><path class="cls-7" d="M794-901.19s.25,2.45,6.23,2.85c0,0,5,.34,5.2-2.3C805.43-900.68,800.85-903.13,794-901.19Z" transform="translate(87.84 1046.69)"/><path class="cls-3" d="M854.68-752.89a6,6,0,0,1-.64,1.43c-3,4.88-53,5.13-58.68,1-2.55-1.84-3.37-33.23,3.66-60.31,1.66,16.22-1.39,48.66,7.1,51.3C815.75-756.43,842-756.37,854.68-752.89Z" transform="translate(87.84 1046.69)"/><path class="cls-21" d="M806.85-809.88C787-752.66,796.07-742.3,789-737.34c0,0-5.94,1.71-6,1.74-7.35,4.87-6.62-2.09-28.55,4.22-10.45,3-23.86,7-35.37,9a69.24,69.24,0,0,1-11.94,1.11c-6.77-.08-11.6-1.89-12.64-6.61-3-13.71,24.14-45.55,21.56-70a2.28,2.28,0,0,0-.06-.63,26.58,26.58,0,0,1,.64-7.11c2.77-13.1,13.63-31.26,24.43-46.57,11.91-16.89,23.75-30.3,24.57-29.66,23.29,18.25,27.18,6.09,27.18,6.09S813.62-829.4,806.85-809.88Z" transform="translate(87.84 1046.69)"/><path class="cls-3" d="M785.11-736.17h0c-7.35,4.88-8.73-1.52-30.66,4.79-10.45,3-23.86,7-35.37,9-5.79.26-10.12.58-11.94,1.11-6.77-.08-11.6-1.89-12.64-6.61-3-13.71,24.14-45.55,21.56-70a2.28,2.28,0,0,0-.06-.63,22.43,22.43,0,0,1,.64-7.11c2.5-9.9,11.31-19.86,21.76-34.67,4.83,6.65,47.83,5.24,30.29,62.47C763.31-760.34,784.3-750.43,785.11-736.17Z" transform="translate(87.84 1046.69)"/><path class="cls-20" d="M782.68-733.44s9.56-1,13.59,1.28,11.94,7.78,10.85,10-11.32,2.21-15.26-.7-7.48-.33-12.44-2.73S782.68-733.44,782.68-733.44Z" transform="translate(87.84 1046.69)"/><path class="cls-21" d="M765.64-881.91s-34.29-4-42.57,11.74-13.91,74-7.21,92.64S770.47-728.71,776-727s10.21-6.59,10.1-7.57-47.84-51.07-47-55.52S765.64-881.91,765.64-881.91Z" transform="translate(87.84 1046.69)"/></g><polygon class="cls-20" points="1999.03 1313.69 1986.79 1365.28 1968.44 1365.17 1967.77 1313.69 1999.03 1313.69"/><polygon class="cls-20" points="1844.71 1315.89 1809.86 1365.28 1796.28 1347.84 1817.25 1309.1 1844.71 1315.89"/><path class="cls-16" d="M1847.47-410.89c6.33-3.6,13.92-4,19.23-3.68a9,9,0,0,0-4-1.92c3.29-.49,10.64,2.77,10.64,2.77,45.79-17.64,53,49.78,52,65.45s15.38,20.78,39.21,33.12C2010-291.6,2014-260.07,2014-260.07c-.36.21-.73.45-1.12.72-2.25-3.82-6.9-11-10.81-12.08.15.35,4.62,9.88,6.3,15.34-13.42,10.2-38.5,32.8-56,48.83.08-3.13,0-7.58-1.19-9.93l-2.16,13c-9.35,8.6-15.81,14.65-15.81,14.65C1934.37-202.2,1876-269,1845.49-289c-7.42-10.92-10-30.22-10.25-31.74,1.28,15.3,3.9,23.88,6.24,28.71C1815.66-315.77,1830.68-401.35,1847.47-410.89Z" transform="translate(87.84 1046.69)"/><path class="cls-20" d="M1847.28-288c-.15.07,14.72,7.79,25.9,4.73,10.52-2.87,17.39-16.51,17.24-16.54-4.45-.88-5.73-7-5.64-33.3l-2,.39L1848.92-326s.77,10.65.79,20.69C1849.73-296.89,1849.21-288.9,1847.28-288Z" transform="translate(87.84 1046.69)"/><path class="cls-22" d="M1848.91-326s.77,10.65.79,20.69c19-.53,29-17.82,33.07-27.4Z" transform="translate(87.84 1046.69)"/><path class="cls-16" d="M1886.26-336.4s9.93-15.69,12.32-29.11c1.7-9.57-3.18-45.07-38.85-40a48.62,48.62,0,0,0-20.1,7.6c-7.75,5.23-18.93,16.52-6.43,47.5l3.25,10.47Z" transform="translate(87.84 1046.69)"/><path class="cls-23" d="M1714,287.61l18,.55,19.43.59s44.87-50,70-130c.58-1.86,1.2-3.75,1.86-5.65,13.77-40.17,42.33-90.59,57.38-136.22,2.39-7.27,4.54-14.11,6.47-20.59q.93-3.11,1.8-6.11c11.09-38.54,14.3-63.84,17.26-90.87l-108.67.87S1779.94,84.72,1714,287.61Z" transform="translate(87.84 1046.69)"/><path class="cls-24" d="M1812.69-162.3c.28,51.71-7.58,73.9-7.58,73.9s46.52,23.64,101.82,6.24c.65-.21,41.59-8.42,41.59-8.42-.92-2.1-12.22-37.87-13.12-39.79-11.67-25.07-13.28-37.23-14.66-44.94-2.57-14.39-2.63-29.28-1.35-43.32a348.6,348.6,0,0,1,13.41-68c-15.07-3.43-29.18-9.45-44.86-15.33-3.6,4.49-14.63,9.19-24.2,9-11-.24-14.58-5-14-10.1-11.74,6.53-21.11,12.7-21.11,12.7-10,17.33-30.21,34.15-31.67,60.74C1796.59-223.15,1812.69-163.75,1812.69-162.3Z" transform="translate(87.84 1046.69)"/><path class="cls-5" d="M1749.6-239.12c16-18.63,57.29-59,99.94-64l-36.81,71.69s-2.07,12.29-13,19.45c-26.7,17.55-60.64,25.3-60.64,25.3s-23-10-54.41-33c-9.86-7.23-27.19-34.79-27.19-34.79l4.67-15.65s29.43,16.46,39.94,21.2c6,2.7,19.78,9.16,29.49,13.72A15.14,15.14,0,0,0,1749.6-239.12Z" transform="translate(87.84 1046.69)"/><path class="cls-20" d="M1842.54-316.51s44.83.74,44.86-27.18,5.84-46.63-22.78-48.29-34.19,9-36.47,18.32S1830.92-317.42,1842.54-316.51Z" transform="translate(87.84 1046.69)"/><path class="cls-16" d="M1844.24-392.68s12.27,32.76,31.11,37.6,27-.2,27-.2a53.37,53.37,0,0,1-17.45-31.51S1853.54-408.25,1844.24-392.68Z" transform="translate(87.84 1046.69)"/><path class="cls-16" d="M1847.28-390s-9.16,7.31-11.4,14.42-3.24,21.75-7.5,21.25c0,0-9.25-22.26,1.14-34.86C1840.54-402.54,1847.28-390,1847.28-390Z" transform="translate(87.84 1046.69)"/><path class="cls-20" d="M1662.2-270.17s-6.32-22.77-31.35-19.55c-2.88.9-11.27,4.25-5.91,13.23,4,6.63,5.67,3.21,11.89,12.12s13,10.91,20.7,9.85Z" transform="translate(87.84 1046.69)"/><path class="cls-20" d="M1899.54,315.7a49.73,49.73,0,0,0,2.33,21.15s3,13.68-10.47,13.94-16.78-1-15.25-9.41,4.42-22.9,4.42-22.9Z" transform="translate(87.84 1046.69)"/><path class="cls-8" d="M1874.89,356.63s.29.18.85.45h26.38a5,5,0,0,0,.74-.45c1.52-6.86-1-19.78-1-19.78-15.27,14-24.81-.35-24.81-.35C1874.61,342.48,1874.89,356.63,1874.89,356.63Z" transform="translate(87.84 1046.69)"/><path class="cls-20" d="M1676,342.75s24.84-27.57,32.47-41.6l18.48,9.46-41.3,38.78-9.66-1.27Z" transform="translate(87.84 1046.69)"/><path class="cls-8" d="M1660.54,357.08h34c3.28-2.45,6.33-8.11,10.13-15.71,2-4,6.58-6.29,11.25-7.52v23H1723l6.67-24.41c4.4-8.09.35-15.42-2.75-21.8-3.59,0-13.28,2.45-31.63,23.13-6,6.79-12.7,9.22-19.31,9a.87.87,0,0,1-.27.14C1664.62,347.87,1661.45,354.06,1660.54,357.08Z" transform="translate(87.84 1046.69)"/><path class="cls-5" d="M1849.73-303.12s-25.94,64.07-26.7,77-3,212-3,212,1.52,9.15-16,5.34-22.12-7.63-22.12-7.63,16.78-122.8,12.21-165.51S1829.2-294.3,1829.2-294.3Z" transform="translate(87.84 1046.69)"/><path class="cls-13" d="M1731.91,288.16l19.43.59s44.87-50,70-130c.58-1.86,1.2-3.75,1.86-5.65,13.77-40.17,42.33-90.59,57.38-136.22,2.39-7.27,4.54-14.11,6.47-20.59q.93-3.11,1.8-6.11l-16-12.15s-48,77.8-62.91,151C1797.05,192.6,1745.3,269.13,1731.91,288.16Z" transform="translate(87.84 1046.69)"/><path class="cls-23" d="M1871.21,135.83c-.27,35.6,1.53,117.46,6.17,151.34h17.16c9.52,0,14.26-.13,14.26-.13,11.63-58.92,19.91-107.68,25.93-149.69,4.94-34.47,9.34-64,12.72-89.47s5.76-47,6.61-65.16c.13-2.86.23-5.63.28-8.33s.07-5.34,0-7.89l-93.8-9.18C1861.72,19.73,1871.37,115.13,1871.21,135.83Z" transform="translate(87.84 1046.69)"/><path class="cls-13" d="M1894.54,287.17c9.52,0,14.26-.13,14.26-.13,11.63-58.92,19.91-107.68,25.93-149.69,4.94-34.47,9.34-64,12.72-89.47s5.76-47,6.61-65.16L1919.61,3s22,7.76,13.6,66.49S1906.26,278.86,1894.54,287.17Z" transform="translate(87.84 1046.69)"/><path class="cls-5" d="M1890.15-17.86S1896.76,6,1919.64,3s55.42-16.78,55.42-16.78-9.77-30.9-21.93-71.49c-14.72-49.14-32.94-112.49-41.53-152.45a248.14,248.14,0,0,1-4.67-27.25l-19-36.83s-28.31,63.53-29.83,79.55S1890.15-17.86,1890.15-17.86Z" transform="translate(87.84 1046.69)"/><path class="cls-14" d="M1891.16-188.68c1,25.93,7.13,76.27,61.53,103.22l.44.2c-14.72-49.14-32.94-112.49-41.53-152.45C1901.61-222.81,1890.61-203,1891.16-188.68Z" transform="translate(87.84 1046.69)"/><rect class="cls-23" x="1598.62" y="-405.66" width="24.27" height="96.5" transform="translate(812.35 2080.97) rotate(-45)"/><rect class="cls-25" x="1786.58" y="-413.46" width="68.78" height="532.53" rx="30.16" transform="translate(725.27 2291.2) rotate(-45)"/><path class="cls-25" d="M1172.54-795.63c-111.44,111.45-111.44,292.14,0,403.59s292.15,111.45,403.59,0,111.45-292.14,0-403.59S1284-907.08,1172.54-795.63ZM1553.9-414.27c-99.17,99.17-260,99.17-359.13,0s-99.17-260,0-359.13,260-99.17,359.13,0,99.17,260,0,359.13Z" transform="translate(87.84 1046.69)"/><path class="cls-20" d="M1913-224.68l-25.06-77.16c.07,0,31.65,9.4,47.53,17.42,0,0,9.93,12.8,16.07,42.33,0,0,6.49,70.9-8,96.83,0,0-45.76,9.15-119-16V-178s80.08,4.2,96.48,6.11Z" transform="translate(87.84 1046.69)"/><path class="cls-5" d="M1887.94-301.82s46.45,3.27,57.63,28.19,14.75,107.8.51,132.21c0,0-19.6,5.58-54.27-.91l-1.28-.24s-11.06-27.08-1.14-32.41c0,0,29.23,1.52,26.18-8.14S1887.94-301.82,1887.94-301.82Z" transform="translate(87.84 1046.69)"/><path class="cls-20" d="M1832.77-173.57s-6.39-7.74-7.75-15.63-5.58-13.75-16.59-15.19-15.75-1.61-15.72,1.5,9,24.77,24.8,37.71S1832.77-173.57,1832.77-173.57Z" transform="translate(87.84 1046.69)"/><path class="cls-26" d="M1486.78-823.34l-340.1,340.1a254.51,254.51,0,0,0,19,32.22L1519-804.35A254.07,254.07,0,0,0,1486.78-823.34Z" transform="translate(87.84 1046.69)"/><path class="cls-26" d="M1463.46-833.43a253.63,253.63,0,0,0-89-16c-140.25,0-254,113.7-254,253.94a253.18,253.18,0,0,0,16,89Z" transform="translate(87.84 1046.69)"/><path class="cls-26" d="M1262-367.81a252.89,252.89,0,0,0,112.53,26.23c140.25,0,253.94-113.7,253.94-254a252.82,252.82,0,0,0-26.23-112.48Z" transform="translate(87.84 1046.69)"/><path class="cls-27" d="M-41.54,361.68H2535.87a2.3,2.3,0,0,0,2.3-2.3h0a2.31,2.31,0,0,0-2.3-2.3H-41.54a2.31,2.31,0,0,0-2.29,2.3h0A2.3,2.3,0,0,0-41.54,361.68Z" transform="translate(87.84 1046.69)"/></svg>