<svg id="Layer_1" data-name="Layer 1" xmlns="http://www.w3.org/2000/svg" viewBox="0 0 1920 1080"><defs><style>.cls-1,.cls-4,.cls-5{fill:#2c2a40;}.cls-1{opacity:0.1;}.cls-2{fill:#7b7b9a;}.cls-3{fill:#b0b1ca;}.cls-5{opacity:0.2;}.cls-6{fill:#00497b;}.cls-7{fill:#f9b587;}.cls-8{fill:#f39568;}.cls-9{fill:#5b5b6c;}.cls-10{fill:#e03641;}.cls-11{fill:#3e86aa;}.cls-12{fill:#fff;}.cls-13{fill:#84519e;}</style></defs><title>stud1</title><path class="cls-1" d="M1662.11,406.18c-40.41-104.24-187.94-97.76-327.72-78.42-75.19,10.41-180.48,24.81-290.35,3.55-236.49-45.77-508.42-57.2-642.42,0S187.05,457.41,225.7,553.69,362.5,736.53,279,788.06s-82.08,246.68,261.2,261.87,309.24-203.57,536-193.41,692.1,158.25,711.75,50.88-232.84-183.95-142.32-362.23C1663.57,509.79,1680.59,453.83,1662.11,406.18Z" transform="translate(0 0)"/><path class="cls-1" d="M902.8,267.52s8.76-37.38,33.45-35.93c6.83.41,11.48,5,14.52,9.94,1.88,3,8.44,2.83,9.8-.33,6.53-15.19,19.89-38.38,40.59-38.38,21.41,0,22.12,26.53,20.56,42.68-.23,2.44,4.52,3.52,6.58,1.5,5.65-5.52,13.89-10.82,23.91-9.28,19.53,3,14.27,29.8,14.27,29.8Z" transform="translate(0 0)"/><path class="cls-1" d="M0,619.11s8.77-37.38,33.45-35.93c6.83.41,11.48,5,14.53,9.94,1.87,3,8.43,2.83,9.79-.33,6.53-15.19,19.89-38.38,40.59-38.38,21.41,0,22.12,26.53,20.56,42.69-.23,2.43,4.52,3.51,6.58,1.49,5.65-5.52,13.89-10.82,23.91-9.28,19.53,3,14.27,29.8,14.27,29.8Z" transform="translate(0 0)"/><path class="cls-1" d="M1736.92,469.74s8.76-37.38,33.45-35.93c6.83.41,11.48,5,14.52,9.94,1.88,3,8.44,2.83,9.8-.33,6.53-15.19,19.89-38.38,40.59-38.38,21.41,0,22.12,26.53,20.56,42.69-.23,2.43,4.52,3.51,6.58,1.49,5.65-5.52,13.89-10.81,23.91-9.28,19.52,3,14.27,29.8,14.27,29.8Z" transform="translate(0 0)"/><path class="cls-2" d="M1672.24,1080s27.56-3.23,25.94-27.45-13.78-57.6-38.1-67.29-42.07,4.31-42.07,4.31Z" transform="translate(0 0)"/><path class="cls-3" d="M1563.62,985.26c.81,8.08,12.15,19.92,36.47,28.53s37.3,39.3,48.23,52.75a37.36,37.36,0,0,0,14.92,11.34,26.41,26.41,0,0,0,9,2.12s.13-2.12.15-5.8a183.7,183.7,0,0,0-5.19-44.8c-6.65-26.37-30.19-35.53-30.19-35.53-4.29-4.86-13.54-8.32-24.09-10.51-17.24-3.58-37.91-3.74-45.92-1C1564.75,983.07,1563.49,984.06,1563.62,985.26Z" transform="translate(0 0)"/><path class="cls-4" d="M1657.84,1025.09c5.75,16.16,8.35,42.82,5.4,52.79a26.41,26.41,0,0,0,9,2.12,182.45,182.45,0,0,0-5-50.6c-6.65-26.37-30.19-35.53-30.19-35.53-4.29-4.86-13.54-8.32-24.09-10.51C1626.87,992.63,1653,1011.42,1657.84,1025.09Z" transform="translate(0 0)"/><path class="cls-5" d="M1563.62,985.26c.81,8.08,12.15,19.92,36.47,28.53s37.3,39.3,48.23,52.75a37.36,37.36,0,0,0,14.92,11.34,26.41,26.41,0,0,0,9,2.12s.13-2.12.15-5.8a5,5,0,0,0-1.78-.66c-8.1-1.35-19-3.42-25.54-23.41s-17.42-34.46-36.06-40.64c-17-5.65-38.38-24-42-27.17C1564.75,983.07,1563.49,984.06,1563.62,985.26Z" transform="translate(0 0)"/><path class="cls-4" d="M1367.76,479.39s187.72-18.73,238.68,34.21-17.5,229.86-72.74,256.65-147,12.9-181.37-3.94S1302.05,504.94,1367.76,479.39Z" transform="translate(0 0)"/><path class="cls-6" d="M1585.22,699.7s23.79-3.77,32.31-22.34L1589.15,669S1578.05,688.13,1585.22,699.7Z" transform="translate(0 0)"/><path class="cls-7" d="M1585.22,667.14c38.91,39.29,126.74,49.52,126.74,49.52,18.18-3.53,42.41-20.33,66.37-40.81h0c45.52-38.93,90.06-91.21,90.06-91.21l-36.48-8.07s-64,47-91.59,57.19-35.68,19.92-35.68,19.92a93.34,93.34,0,0,0-9.76-6.06c-19.59-10.73-46.58-19.12-46.58-19.12C1617.1,622.7,1585.22,667.14,1585.22,667.14Z" transform="translate(0 0)"/><path class="cls-8" d="M1585.22,667.14c38.91,39.29,126.74,49.52,126.74,49.52,18.18-3.53,42.41-20.33,66.37-40.81,0,0-42.8,30.2-70,32.73s-78.77-22.06-84-31.49,2.48-33.39,24-48.59C1617.1,622.7,1585.22,667.14,1585.22,667.14Z" transform="translate(0 0)"/><path class="cls-4" d="M1211.89,770.25s-2.05,79.43,14.75,129.59,88.53-82.12,88.53-82.12S1250.88,780.24,1211.89,770.25Z" transform="translate(0 0)"/><path class="cls-4" d="M1462.63,816.78s-1.55,46.83-47.76,79.93-66,71.86-66,71.86,69.17-21,113.81-15.34c0,0,23.37.81,31.88-5.65s11-14.13,24.32-11.71,32.23-.4,37.09-.8,35.87,32.29,29.79,53.69c0,0-24.32,4.44-27.36,7.27s-20.67,14.93-31.61,14.53-40.13,10.9-40.13,10.9-150.38,38-164.15,44.41c-23.18,10.8-132.53,22.61-142.26-18.17s85.72-234.56,99.1-255.55S1446.56,791.34,1462.63,816.78Z" transform="translate(0 0)"/><path class="cls-9" d="M1325.9,951.17l4.23,1a92.34,92.34,0,0,1,5.61-8.85l-4.08-1.28A94.7,94.7,0,0,0,1325.9,951.17Z" transform="translate(0 0)"/><path class="cls-9" d="M1548.23,947.11l1,2.92c4.47-.65,9.29-1.27,14.33-1.86l-.78-2.95C1557.64,945.81,1552.75,946.45,1548.23,947.11Z" transform="translate(0 0)"/><path class="cls-9" d="M1324.71,974.23l-4.49.33.06.34a14.23,14.23,0,0,0,5.74,9.44l3.31-2a11.77,11.77,0,0,1-4.57-7.78Z" transform="translate(0 0)"/><path class="cls-9" d="M1360.33,983l1.22,2.89c4.63-.86,9.51-1.9,14.11-2.89l-1.4-2.85C1369.71,981.17,1364.88,982.2,1360.33,983Z" transform="translate(0 0)"/><path class="cls-9" d="M1356.77,913.4c-2.85,2.84-5.54,5.61-8,8.22l3.82,1.59c2.44-2.59,5.11-5.33,7.94-8.15Z" transform="translate(0 0)"/><path class="cls-9" d="M1347.34,928.94l-3.88-1.53c-2.63,3-5.06,5.84-7.22,8.57l4,1.39C1342.36,934.69,1344.75,931.85,1347.34,928.94Z" transform="translate(0 0)"/><path class="cls-9" d="M1440.86,813.59l-4.45-.52c-.82,3.17-1.79,6.35-2.88,9.48l4.4.67C1439,820,1440,816.8,1440.86,813.59Z" transform="translate(0 0)"/><path class="cls-9" d="M1374.61,901.53l-3.68-1.74c-3.07,2.87-5.83,5.49-8.44,8l3.71,1.7C1368.8,907,1371.55,904.38,1374.61,901.53Z" transform="translate(0 0)"/><path class="cls-9" d="M1385.5,886.43c-2.86,2.59-5.75,5.22-8.64,7.88l3.66,1.75q4.32-4,8.62-7.87Z" transform="translate(0 0)"/><path class="cls-9" d="M1327.1,958.49l-4.35-.78a38.17,38.17,0,0,0-2.66,9.84l4.5.24A36,36,0,0,1,1327.1,958.49Z" transform="translate(0 0)"/><path class="cls-9" d="M1336.92,984.94l-.85,2.94a43.75,43.75,0,0,0,5.58.33,79.82,79.82,0,0,0,9.82-.69l-.82-2.94A56.86,56.86,0,0,1,1336.92,984.94Z" transform="translate(0 0)"/><path class="cls-9" d="M1457.71,971.94l.75,2.95c4.91-.55,9.8-1.26,14.53-2.1l-1.16-2.9C1467.23,970.71,1462.48,971.4,1457.71,971.94Z" transform="translate(0 0)"/><path class="cls-9" d="M1481.38,968l1.48,2.83c5-1.15,9.61-2.43,13.8-3.83l-2-2.67C1490.62,965.61,1486.16,966.85,1481.38,968Z" transform="translate(0 0)"/><path class="cls-9" d="M1383.94,978.11l1.36,2.86c5.64-1.18,9.94-2,14-2.7l-1.12-2.9C1394,976.06,1389.66,976.91,1383.94,978.11Z" transform="translate(0 0)"/><path class="cls-9" d="M1433.37,973.38l0,3c4.89,0,9.89-.22,14.85-.56l-.47-3C1443,973.17,1438.12,973.35,1433.37,973.38Z" transform="translate(0 0)"/><path class="cls-9" d="M1524,951.7l1.63,2.79c3.85-1,8.48-2,13.76-2.89l-1.16-2.9C1532.81,949.66,1528,950.67,1524,951.7Z" transform="translate(0 0)"/><path class="cls-9" d="M1509.89,957.23a39.89,39.89,0,0,1-6.75,3.76l2.55,2.47a43.68,43.68,0,0,0,7.53-4.21,18.44,18.44,0,0,1,3.67-2l-2.41-2.53A23.13,23.13,0,0,0,1509.89,957.23Z" transform="translate(0 0)"/><path class="cls-9" d="M1431.09,829c-1.29,3.13-2.71,6.24-4.23,9.23l4.28,1c1.54-3.05,3-6.22,4.3-9.41Z" transform="translate(0 0)"/><path class="cls-9" d="M1391.5,881l3.64,1.77c2.95-2.68,5.84-5.31,8.64-7.88l-3.65-1.76C1397.33,875.68,1394.44,878.31,1391.5,881Z" transform="translate(0 0)"/><path class="cls-9" d="M1417.21,860.78l-4-1.41c-2.32,2.86-4.8,5.65-7.37,8.26l3.78,1.64C1412.28,866.58,1414.83,863.73,1417.21,860.78Z" transform="translate(0 0)"/><path class="cls-9" d="M1417.74,853.41l4.08,1.28c2.06-2.91,4-6,5.83-9.06l-4.21-1.08C1421.67,847.59,1419.75,850.57,1417.74,853.41Z" transform="translate(0 0)"/><path class="cls-9" d="M1408.26,973.92l.76,3a94.67,94.67,0,0,1,14.1-.68l.23-3A102.43,102.43,0,0,0,1408.26,973.92Z" transform="translate(0 0)"/><path class="cls-7" d="M1206.34,238.66l18.34,51.89.11.32a143.15,143.15,0,0,0,5.15,22.31c4.41,14.13,12.22,32.11,25.59,44.88a61.6,61.6,0,0,0,6.54,5.48s11.61,29.63,24.12,55.22h0c7.37,15.07,15,28.75,20.86,34.13,0,0,74.1-9.24,56.34-38.66,0,0-25.2-38.37-45.06-66.64v0c-3.84-5.47-7.49-10.56-10.71-14.93l-22.72-34.42L1274,281.71l-33-50Z" transform="translate(0 0)"/><path class="cls-8" d="M1286.2,418.76c7.37,15.07,15,28.75,20.86,34.13,0,0,74.1-9.24,56.34-38.66,0,0-25.2-38.37-45.06-66.64.48,1.1,17.83,41.52,12.63,52.88C1325.71,412,1310.32,422.84,1286.2,418.76Z" transform="translate(0 0)"/><path class="cls-10" d="M1286.65,454.81c1.1,21.39,14.36,46.87,29.73,62.06,9.27,6.48,20.86,6.46,32.7,3.07,30.12-8.58,62-38.83,62-38.83l-43.39-60.92-4.26-6c-24.51,4.44-49.34,16-63.75,23.61-7.79,4.1-12.53,7-12.53,7A48.48,48.48,0,0,0,1286.65,454.81Z" transform="translate(0 0)"/><path class="cls-5" d="M1286.65,454.81c1.1,21.39,14.36,46.87,29.73,62.06,9.27,6.48,20.86,6.46,32.7,3.07-26-17.15-43.8-65.15-49.43-82.1-7.79,4.1-12.53,7-12.53,7A48.48,48.48,0,0,0,1286.65,454.81Z" transform="translate(0 0)"/><path class="cls-4" d="M1286.65,454.81c20.3-13.38,66.73-29.75,81-34.62l-4.26-6c-37.76,6.84-76.28,30.64-76.28,30.64A48.48,48.48,0,0,0,1286.65,454.81Z" transform="translate(0 0)"/><path class="cls-10" d="M1188.1,780.44c56.47,48.55,292.3,51.68,292.3,51.68s-8.36-64.26,0-96.08c9.19-35,17.15-86.4,17.15-86.4,21.58,10.47,54.53,30,73.29,41.28,8.73,5.28,14.38,8.78,14.38,8.78,5.92-18,14.12-31.7,22.66-42,19.35-23.32,40.44-29.22,40.44-29.22l-9.88-8.57-71.58-62.07-76.92-42.32-13.24-7.28-60.53-25.75L1391.39,472s-64.06,17.81-82.3,36.3-60.14,104.17-73,146.22a1037.33,1037.33,0,0,1-44.51,118.33l0,0C1189.38,777.76,1188.1,780.44,1188.1,780.44Z" transform="translate(0 0)"/><path class="cls-5" d="M1188.1,780.44c56.47,48.55,292.3,51.68,292.3,51.68s-8.36-64.26,0-96.08c9.19-35,17.15-86.4,17.15-86.4,21.58,10.47,54.53,30,73.29,41.28,8.73,5.28,14.38,8.78,14.38,8.78,5.92-18,14.12-31.7,22.66-42,0,0-82.67-29.74-118-55.72,0,0-44.05,80.89-59.21,121.65-19.63,52.76-86.18,74.29-147.26,71.59s-91.8-22.43-91.8-22.43l0,0C1189.38,777.76,1188.1,780.44,1188.1,780.44Z" transform="translate(0 0)"/><path class="cls-4" d="M1452.3,525c14-1.82,21.09-7,31.7-12.73l-7.3-4-64.56-34c-8.56,3.6-19.26,7.15-20.74,21.59C1389.15,517.63,1423.77,528.73,1452.3,525Z" transform="translate(0 0)"/><path class="cls-4" d="M1570.84,690.92c8.73,5.28,14.38,8.78,14.38,8.78,19.34-58.94,63.1-71.2,63.1-71.2l-9.88-8.57C1620.41,628.5,1582.88,650.66,1570.84,690.92Z" transform="translate(0 0)"/><path class="cls-4" d="M1525.21,458.39s1.26,23.4-39.34,28.19C1485.87,486.58,1496,456,1525.21,458.39Z" transform="translate(0 0)"/><path class="cls-10" d="M1458.65,408.25c24.53,26.18,64.17,48.2,64.17,48.2s84.6-27.13,56.79-71.7a84.29,84.29,0,0,0-26.55-27h0c-42.31-26.83-98.7-9.49-98.7-9.49C1429.71,365.2,1439.63,388,1458.65,408.25Z" transform="translate(0 0)"/><path class="cls-11" d="M1553,357.75h0Z" transform="translate(0 0)"/><path class="cls-5" d="M1458.65,408.25c24.53,26.18,64.17,48.2,64.17,48.2s84.6-27.13,56.79-71.7a84.29,84.29,0,0,0-26.55-27c.48.52,23.82,25.33,0,41.84C1529,416.29,1487.24,422.28,1458.65,408.25Z" transform="translate(0 0)"/><path class="cls-4" d="M1522.35,396.36s-22.11-76-92.88-72.52c-66.27,3.23-14.64,61.47-14.64,61.47S1510.49,403.45,1522.35,396.36Z" transform="translate(0 0)"/><path class="cls-4" d="M1434.88,369.49s-30.36,4-27.52,22.58C1407.36,392.07,1433.08,382,1434.88,369.49Z" transform="translate(0 0)"/><path class="cls-7" d="M1487.83,482l-11.13,26.3c-1.15,3.58-5.33,6.41-10.72,7.19-46.46,6.79-68.59-15.83-63.91-23.76,6-1.42,109.43-23.39,128.24-49.79C1530.31,441.9,1523.72,465.49,1487.83,482Z" transform="translate(0 0)"/><path class="cls-7" d="M1407.38,480.82c14.87,3.81,35.82,7.25,57.63,4.69,41.15-4.86,62.57-37.19,62.57-37.19s6.87-22-2.37-42.27a46.84,46.84,0,0,0-11.53-15.69c-19.35-17.38-51.53-20.48-69.23-21.6-8.8-.56-17.32,2.24-21.94,7.25l-7.75,8.43-5.18,5.62a37.76,37.76,0,0,0-3,3.71,29.22,29.22,0,0,0-5.4,13.61l-.6,5.51a37.15,37.15,0,0,0-9.16,11.24,27.43,27.43,0,0,0-3.11,10.89l-1.61,24.8C1386.09,469,1394.4,477.5,1407.38,480.82Z" transform="translate(0 0)"/><path class="cls-4" d="M1449.94,398.33s32.92-8.27,40,9.82l-5.15,2.61s-10-13.94-36.14-7.72Z" transform="translate(0 0)"/><path class="cls-8" d="M1400.56,412.89a37.18,37.18,0,0,0-9.16,11.24c6.48-.89,17.72.05,36.59,7.67,0,0-7-8.92-17.6-12.16-2.86-.87-3.64-3.33-1.54-4.89l14-10.46s-.55-3.06-4.52-5.3a97,97,0,0,0-11.78-5.21,29.12,29.12,0,0,0-5.39,13.6Z" transform="translate(0 0)"/><path class="cls-4" d="M1410,390.4a69.49,69.49,0,0,1,12.84,5.89l-1.89,4.18a51.89,51.89,0,0,0-13.68-5.84c-2.15-.56-3.19-2.11-2.26-3.33l0-.05C1405.88,390.14,1408.1,389.75,1410,390.4Z" transform="translate(0 0)"/><path class="cls-12" d="M1397.23,434.55l57.1,12.46s-19.22,17.82-48,8.86C1383.67,448.85,1397.23,434.55,1397.23,434.55Z" transform="translate(0 0)"/><path class="cls-8" d="M1411.06,481.12s35.85,7.05,74.81-19.09c0,0,.84,14-20.06,27.82-15.21,10-43.94,8.36-58.45,6.71-4.38-.49-6.66-3.72-4.42-6.26Z" transform="translate(0 0)"/><path class="cls-7" d="M1517,438.89s18.93-10.08,30.13.17-16.82,37.66-35,25.72S1517,438.89,1517,438.89Z" transform="translate(0 0)"/><path class="cls-4" d="M1449.16,411.83s7.48-5.56,16.26-3.05c12.8,3.66,10.54,11.55,10.54,11.55S1471,405.4,1449.16,411.83Z" transform="translate(0 0)"/><path class="cls-4" d="M1417.42,408s-4.23-9.51-15-2.58C1402.42,405.44,1411.86,401.75,1417.42,408Z" transform="translate(0 0)"/><path class="cls-8" d="M1414.34,384.3c0,.28-1,1.34-.95,1.63,0,0,18.47-10.28,51-1.93s48.48,28.79,48.48,28.79l12.33-6.74a46.84,46.84,0,0,0-11.53-15.69c-19.35-17.38-51.53-20.48-69.23-21.6-8.8-.56-17.32,2.24-21.94,7.25Z" transform="translate(0 0)"/><path class="cls-4" d="M1507.07,440.52l10.69,3.23,15.59-9.29c2.45-8.92-8.44-32.74-11-38.1-1.37-.87-3.63-1.73-5.22-2.59,0,0-10.73,24.65.88,33.77Z" transform="translate(0 0)"/><path class="cls-8" d="M1224.68,290.55l.11.32a143.15,143.15,0,0,0,5.15,22.31l55-15L1274,281.71Z" transform="translate(0 0)"/><path class="cls-5" d="M1305.32,540.68l43.5,25.79S1333.26,607,1300,598C1259.84,587.06,1305.32,540.68,1305.32,540.68Z" transform="translate(0 0)"/><polygon class="cls-4" points="1166.48 317.81 1360.12 269.8 1312.25 184.66 1118.61 232.66 1166.48 317.81"/><polygon class="cls-4" points="1118.61 232.66 1166.48 317.81 1360.11 269.8 1352.83 268.43 1124.11 225.29 1120.4 230.26 1120.4 230.26 1118.61 232.66"/><path class="cls-12" d="M1120.4,230.26l45.71,81.64,5.87-1.46,69.51-65.38-117.38-19.77Z" transform="translate(0 0)"/><polygon class="cls-4" points="1171.98 310.44 1357.15 264.53 1309.28 179.39 1124.11 225.3 1171.98 310.44"/><path class="cls-7" d="M1186.73,202.72l0,0a15.84,15.84,0,0,1,8.81-2.83c.56-1.69,3.53-2.94,6.88-3.39a12.68,12.68,0,0,1,5.73.58c1.53-1.95,5.37-3.11,7.46-2.34,0,0,.51.14,1.38.41a5.42,5.42,0,0,1,2.35-2.2h0c2.16-2,8.32-3.09,10.67-2.22,0,0,20.5,5.49,22.45,16s4.85,22.71-2.47,21c-2.1-.5-4.17-2.24-6-4.6.79,6.3.33,11-4.41,9.88-2.63-.63-5.22-3.21-7.34-6.52.46,5.34-.34,9-4.6,8-3.85-.91-7.59-6-9.94-11.44.71,6.08.17,10.54-4.46,9.44-5.67-1.35-7.29-9.8-11.25-16.63-4.65-8-5.72-3.82-12.55-6.75l-6.13,1.52C1182.09,205.94,1186.34,203,1186.73,202.72Z" transform="translate(0 0)"/><path class="cls-7" d="M1821.42,590.14c-8.62-3.56-14.86-9.14-17.56-15.64-.78-1.86-1.69-3.84-2.73-5.79-4.05-7.53-.81-23.68,0-30.14s7.7-18.84,9.73-20.19,14.18,4.4,9.32,12.7-1.37,17.52,1.14,20.18,13.85-2.19,16.69-7,27.56-41.45,32.43-42.52,8.91-.27,5.67,9.15-18.64,25.84-16.62,30.41,5.68.81,6.89-1.61,21.08-37.07,24.32-38.32,12.57-3.41,7.7,11.26-20,32.57-19.05,35.8,21.59-32.5,27.36-34.51,10,1.61,5.47,10.49-16.73,26.11-17.76,28c-.86,1.64-.37,3,1.75,2.21s15-21.78,17.93-23,10.24,1,2.34,15.34-13.17,27-34.66,40.22c-13.25,8.14-19.75,13.07-32.22,11.86C1842.1,598.33,1830.74,594,1821.42,590.14Z" transform="translate(0 0)"/><path class="cls-4" d="M1553.06,549.84s5.29-38.81-40.6-46.88c-32.9-5.79-88.65,34.46-102.77,79.66-25,79.94,32.89,149.65,70.71,158.8,0,0,34.53-17.77,8.21-41.72,0,0-71.19-47.66-39.45-116.27,26.43-57.15,68.66-71.86,84.54-43.81Z" transform="translate(0 0)"/><path class="cls-4" d="M1259.73,595.28l19.67-40.18s-2.74-70.18,108.76-87.87a14.6,14.6,0,0,1-1.48-7.41l.69-10.7C1373.42,449.73,1231.29,477,1259.73,595.28Z" transform="translate(0 0)"/><path class="cls-8" d="M1704.66,677.09a72.3,72.3,0,0,1,0-23.41,93.34,93.34,0,0,0-9.76-6.06C1690.07,672.38,1704.66,677.09,1704.66,677.09Z" transform="translate(0 0)"/><path class="cls-8" d="M1255.53,358.06a61.6,61.6,0,0,0,6.54,5.48s18.76-7.26,24.17-9.15C1286.24,354.39,1268.93,354.59,1255.53,358.06Z" transform="translate(0 0)"/><path class="cls-3" d="M1555.92,936.94c10.07,6.31,18.21,21.08,23.5,33,0,0,0,0,0,0a172.44,172.44,0,0,1,6.68,17.56c8.95,6.46,29.37,4.6,62.19,7,29.53,2.13,50.23,15.76,72.25,21.63h0q3.66,1,7.38,1.65c13.1,2.29,22.33.86,27.35-3.35,4.54-3.8,5.65-9.89,3-17.57-5.47-16.18-66.88-51.71-84.51-56.44s-28.57-7.5-49.52-19-42.28-12.23-46.53-7.94c-.72.72-1.8,1.85-3.13,3.24C1568.14,923.75,1555.92,936.94,1555.92,936.94Z" transform="translate(0 0)"/><path class="cls-4" d="M1574.68,916.84c6.94-.51,18.69-.74,27,2.48,12.56,4.85,30.4,16.15,49.44,22.07s55.53,22.61,74.59,34.45,30.25,30.48,24.72,36.6-15.62,5.91-29.88,3.76q3.66,1,7.38,1.65c24.93,4.35,35.87-4.74,30.4-20.92s-66.88-51.71-84.51-56.44-28.57-7.5-49.52-19-42.28-12.23-46.53-7.94C1577.09,914.32,1576,915.45,1574.68,916.84Z" transform="translate(0 0)"/><path class="cls-5" d="M1579.45,970a172.44,172.44,0,0,1,6.68,17.56c8.95,6.46,29.37,4.6,62.19,7,29.53,2.13,50.23,15.76,72.25,21.63h0q3.66,1,7.38,1.65c13.1,2.29,22.33.86,27.35-3.35l1.63-6.36s-21.89,7.27-47-2.42c-19.24-7.42-27.91-14.64-43.35-17.5,2.87-7.76-3.67-16.15-3.67-16.15a45.4,45.4,0,0,1-4.79,14.82,77.49,77.49,0,0,0-9.8-.29C1623.24,987.41,1584.09,979.39,1579.45,970Z" transform="translate(0 0)"/><path class="cls-3" d="M113.08,816.08a35.63,35.63,0,0,0,19.4-6.66c.17-.11.35-.23.52-.36h0c9.46-6.76,16.26-17,23-24.79a52.19,52.19,0,0,1,5.94-6c6.33-5.3,17.39-19.25,27-32.11l1.45-1.94c9.36-12.58,17-23.58,17-23.58a92.87,92.87,0,0,0-9.22-14,66.3,66.3,0,0,0-5.79-6.39c-4.22-4-9.09-7.39-14.29-8.45-16.22-3.32-31.24,3.82-43.72,13.47-12.21,9.44-45.82,49.26-51.3,65.79-.12.35-.22.69-.31,1C77.06,792.88,87.73,817,113.08,816.08Z" transform="translate(0 0)"/><path class="cls-4" d="M113.08,816.08a35.78,35.78,0,0,0,19.92-7c-17.64,5.62-28.39,2.22-34.58-2.42-7.73-5.81-10.64-21.76-8.62-28.49,4.91-16.4,23.19-42.11,32.49-52.34S150,698.69,167.93,697a56.91,56.91,0,0,1,24.44,3.22c-4.22-4-9.09-7.39-14.29-8.45-16.22-3.32-31.24,3.82-43.72,13.47s-47.26,51-51.61,66.82C77.06,792.88,87.73,817,113.08,816.08Z" transform="translate(0 0)"/><path class="cls-5" d="M113.08,816.08a35.63,35.63,0,0,0,19.4-6.66c.17-.11.35-.23.52-.36h0c9.46-6.76,16.26-17,23-24.79a52.19,52.19,0,0,1,5.94-6c6.33-5.3,17.39-19.25,27-32.11l1.45-1.94c-3-2.37-7-3.4-12.26-2.43,0,0-12.57,7.7-24.46,23.54-13.06,17.41-19.93,33.94-44.38,34.08s-20-10.52-23.31-25.87c-.46-2.14-1.48-2.84-2.91-2.46-.12.35-.22.69-.31,1C77.06,792.88,87.73,817,113.08,816.08Z" transform="translate(0 0)"/><path class="cls-3" d="M517.76,961.76c.27,9,10.92,68.56,40.16,80.61,14.76,6.08,23.24,5.85,27.49,1.3,2.44-2.6,3.5-6.59,3.56-11.61a64,64,0,0,0-1.24-12.22c-4-21.84-4.49-72.39,24.42-83.37,0,0-5.29-26.08-18.82-42.15-4.06-4.85-8.89-8.78-14.54-10.82,0,0-20.18.08-32.88,1.22-5.49.5-12.88.34-19.81,1.59C517,888,508.7,892,506.55,903.23,502.76,923,517.48,952.76,517.76,961.76Z" transform="translate(0 0)"/><path class="cls-4" d="M517.76,961.76c.27,9,10.92,68.56,40.16,80.61,14.76,6.08,23.24,5.85,27.49,1.3a53.39,53.39,0,0,1-27-6.71c-12.71-7.25-28.69-48.13-27.75-61.33s-7.25-37.19-14.45-55.61c-5.44-13.94,4.68-27.8,9.91-33.71C517,888,508.7,892,506.55,903.23,502.76,923,517.48,952.76,517.76,961.76Z" transform="translate(0 0)"/><path class="cls-5" d="M517.76,961.76c.27,9,10.92,68.56,40.16,80.61,14.76,6.08,23.24,5.85,27.49,1.3,2.44-2.6,3.5-6.59,3.56-11.61-5.58.83-14-.58-23.7-4.21-17.14-6.4-20.55-41.28-18.09-64.32s-18.27-41.14-6.35-55.64,51.32-11.22,51.32-11.22a19.12,19.12,0,0,0,1.18-2.35c-4.06-4.85-8.89-8.78-14.54-10.82,0,0-20.18.08-32.88,1.22-5.49.5-12.88.34-19.81,1.59C517,888,508.7,892,506.55,903.23,502.76,923,517.48,952.76,517.76,961.76Z" transform="translate(0 0)"/><path class="cls-4" d="M520.29,330.6s-176,3.17-209.61,57,72.26,208,129.27,226.55S577.39,610.07,604.63,591,586.57,346.85,520.29,330.6Z" transform="translate(0 0)"/><path class="cls-7" d="M410.4,474.07s-.27,21.74-13.67,45.39c0,0-4,15.78-10.08,35.34,0,0,0,0,0,0-7.22,23-14.25,40-24.65,54a205.81,205.81,0,0,0-19.43,31.92c-.52,1.07-1,2.1-1.47,3.09h0a139.12,139.12,0,0,0-6,14.47l-38.61-8.55s-2.41-27-1.7-41.72c.86-18.24-2-53.88,15.55-83.4h0a48.17,48.17,0,0,1,4.56-6.43s4.95-29.1,12.09-48.32c2.37-6.37,5-11.65,7.74-14.43C334.75,455.41,391.92,451.43,410.4,474.07Z" transform="translate(0 0)"/><path class="cls-8" d="M339.88,520.81s-22.48.16-29.51,3.79h0a48.17,48.17,0,0,1,4.56-6.43S332.19,517.49,339.88,520.81Z" transform="translate(0 0)"/><path class="cls-8" d="M410.4,474.07s-.27,21.74-13.67,45.39c0,0-4,15.78-10.08,35.34,2.37-14.72.71-41.14,1.17-60.41.31-13.16-17.53-16.25-33.12-20-6.49-1.55-19.22-3.15-26.74-4.8-.32-.07-.64.15-.95.21,2.37-6.37,5-11.65,7.74-14.43C334.75,455.41,391.92,451.43,410.4,474.07Z" transform="translate(0 0)"/><path class="cls-7" d="M329.43,638.3l37,17.42c3.92,1.84,6.28,4.82,6.36,8l.61,23.67c.07,2.82-3.32,5.14-7.56,5.18h0c-3.56,0-6.69-1.55-7.56-3.84l-8.53-22.3L341,664.31l5.48,13.31,6.74,12.08,16.86,14c2.46,2,1.85,5-1.34,6.55h0a9.58,9.58,0,0,1-9-.54l-22.23-15.33-14.86-12.11,11.7,15.21L357,719.87a3.21,3.21,0,0,1,0,4.89h0c-2.32,2.27-7.17,2.59-10.1.65l-24.46-16.15-13.91-14.39,12.22,25.39,10.83,16.24c1.19,1.79.22,3.9-2.29,4.94h0c-2.79,1.15-6.45.58-8.18-1.27l-15.71-16.88L294,703.72l7.32,16.86,4,5.74c.83,1.2.05,2.62-1.75,3.18h0a4.83,4.83,0,0,1-4.44-.77l-6-5.5-8.91-14,12.46-59.8S301.88,641.28,329.43,638.3Z" transform="translate(0 0)"/><path class="cls-8" d="M341.09,643.8a60.87,60.87,0,0,0-24.82-3.38s14.43-3.62,26.3.28Z" transform="translate(0 0)"/><path class="cls-7" d="M693.6,285.11C733,233.56,717,165.84,714.16,148.72a18.41,18.41,0,0,0-2.87-6.14h0C696.36,119,628.77,55.51,613.38,41.17L611,39l-.75-.69L562.83,52.93s31.88,22.14,44.41,49.93,42.53,64.21,42.53,64.21c-13.21,32.23-14.2,74.4-14.2,74.4C658.5,277.21,693.6,285.11,693.6,285.11Z" transform="translate(0 0)"/><path class="cls-8" d="M693.6,285.11C733,233.56,717,165.84,714.16,148.72a18.41,18.41,0,0,0-2.87-6.14c0,.85-1.16,55.37-6.51,73s-14,36.39-29.57,38.89-31.19-3.39-39.64-13C658.5,277.21,693.6,285.11,693.6,285.11Z" transform="translate(0 0)"/><path class="cls-7" d="M610.12,40.8c-6.34,4.47-33.9,16.87-37.91,18.06-1.41.42-3.3-.18-5.16-1.12-1.84,0-14,.15-20.53-2-3.61-1.16-3.43-4.59-2.35-8.21C535.45,46,518.7,36.86,519.25,28.4c.6-9.22,15.54-9.65,15.54-9.65.66-10.59,15.76-8.63,15.76-8.63,1-4.59,13.63-6.43,13.63-6.43,1.43-3.91,9.68-4.46,14.51-2.84s33,24.47,34.17,28.59S610.12,40.8,610.12,40.8Z" transform="translate(0 0)"/><path class="cls-8" d="M566.87,42.86c1.91,5.32-4.82,5.9-4.82,5.9,1.38-.67,1.36-2.93,1.06-4.89a8.42,8.42,0,0,0-.69-2.92h0a8.62,8.62,0,0,0-5.63-4.86c-5.95-1.88-8.72-.71-8.72-.71l-11.55-11C542.59,27,550.6,33,550.6,33c10.63-.11,14.41,5.15,15.68,8,2.09-.07,4.43-.64,5.33-2.55,1.81-3.81-1.89-7.59-1.89-7.59L553.68,16s22.1,14.38,22.41,19.85C576.49,43.1,566.87,42.86,566.87,42.86Z" transform="translate(0 0)"/><path class="cls-8" d="M570.44,11.65s14.35,12,16.19,15.22c2,3.53-1.46,7-5.35,7.6a9.21,9.21,0,0,1-6-.73l-.12,3.7s14.89,1.79,15.1-7.64C590.33,25.08,570.44,11.65,570.44,11.65Z" transform="translate(0 0)"/><path class="cls-8" d="M589.37,27.6a11.54,11.54,0,0,0,7.94,1.5c4.41-.87,5.38-2.82,4.42-4.63a2.65,2.65,0,0,1,.22,4.28c-3.08,3.25-10.41,2.53-12.71,2.09Z" transform="translate(0 0)"/><path class="cls-8" d="M604.43,45.08s5.41-.65,9-3.91L611,39A26.72,26.72,0,0,1,604.43,45.08Z" transform="translate(0 0)"/><path class="cls-8" d="M570.67,59s6.93-.39,10.86-2A19,19,0,0,1,573,60.87Z" transform="translate(0 0)"/><path class="cls-8" d="M649.77,167.07s20.75-2.1,27.82-6c0,0-7.57,11.85-30.2,12.29Z" transform="translate(0 0)"/><path class="cls-4" d="M174.19,762.91c8.37,4.14,4.52,5.08,12.78,8.05,8,2.87,29,14.29,30.29,15l.07,0c54.89,38.7,147.42,98.93,197.55,103.51,47.27,4.31,117.71-83.72,162.71-148.35h0c.48-.47,18.82-18.43,46.22-13.14,27.77,5.36,130.07,69.13,177.15,85.26,0,0-63.1,2.14-83.72,19.71s-78.09,34.35-88.52,37.13-15.87-.33-25.57,3.91-24.37,9.49-24.37,9.49c-.39,19.57,10.6,36.5,32.1,53.49a141,141,0,0,1,17.56-4.91c11.95-2.34,37.13-6.75,41.59-12.23s160-27.21,160-27.21,119.48-15.72,128.75-53.37-233.3-206.85-233.3-206.85L706.7,578.16l-87.57,9.62v0l-159.83,8s-27.33,48.78-35,92.78C419.11,718,389.77,788,389.77,788s-27-18.46-79.65-33.4c-13.44-3.82-27.3-8-40.48-12.08h0s-19.95-6.65-26.9-13.06S231.55,725.52,224,724s-13.87-7.57-18.89-6.94-6.51,2.27-6.51,2.27c-12.8,8-18.58,13.27-27.1,32.85C171.53,752.2,165.83,758.78,174.19,762.91Z" transform="translate(0 0)"/><path class="cls-9" d="M317.16,774l-1.82,1.89c3.72,1.58,7.73,3.45,11.92,5.53l2-1.79C325,777.45,321,775.56,317.16,774Z" transform="translate(0 0)"/><path class="cls-9" d="M295.21,766.06l-1.58,2c3.61,1.27,7.09,2.45,10.34,3.5l2.73.93,1.58-2c-.95-.33-1.89-.65-2.83-1C302.23,768.48,298.79,767.31,295.21,766.06Z" transform="translate(0 0)"/><path class="cls-9" d="M271.89,760c4.34,1.7,8.64,3.33,12.78,4.85l1.64-2c-4.11-1.52-8.39-3.14-12.7-4.83Z" transform="translate(0 0)"/><path class="cls-9" d="M335.22,785.5c3.53,1.88,7.19,3.92,11.21,6.23l2.22-1.7c-4-2.32-7.75-4.38-11.3-6.28Z" transform="translate(0 0)"/><path class="cls-9" d="M374.78,805.51l-2.24,1.69a102.23,102.23,0,0,0,10.37,5.53q.81.35,1.62.6l1.43-2a11.77,11.77,0,0,1-1.21-.44A100.89,100.89,0,0,1,374.78,805.51Z" transform="translate(0 0)"/><path class="cls-9" d="M394.12,810.91l1.65,2a31.66,31.66,0,0,0,10.77-7.22l-2.79-1.27A28.58,28.58,0,0,1,394.12,810.91Z" transform="translate(0 0)"/><path class="cls-9" d="M356.3,794.5l-2.25,1.67,9.14,5.46,1.76,1.06,2.27-1.67-1.76-1C362.57,798.23,359.5,796.39,356.3,794.5Z" transform="translate(0 0)"/><path class="cls-9" d="M250.67,751.32c4,1.71,8.22,3.45,12.48,5.17l1.76-1.92c-4.24-1.71-8.42-3.44-12.42-5.14Z" transform="translate(0 0)"/><path class="cls-9" d="M192.08,727.94c-.86.66-1.7,1.34-2.53,2,2.65.25,6.53.66,10.75,1.32l.77-2.19C197.7,728.57,194.58,728.19,192.08,727.94Z" transform="translate(0 0)"/><path class="cls-9" d="M211,731l-1.16,2.11a40.78,40.78,0,0,1,11.28,4.19l.76.46,2.25-1.68-.7-.42A44.16,44.16,0,0,0,211,731Z" transform="translate(0 0)"/><path class="cls-9" d="M232,740.22,230,742c3.43,1.67,7.51,3.55,12.12,5.59l1.88-1.87C239.44,743.73,235.4,741.87,232,740.22Z" transform="translate(0 0)"/><path class="cls-9" d="M454.15,670.88l3.27.57q1.86-4.71,3.8-9.41l-3.27-.59C456.67,664.58,455.39,667.74,454.15,670.88Z" transform="translate(0 0)"/><path class="cls-9" d="M460.66,654.93l3.26.61q2-4.74,4-9.38l-3.25-.62C463.33,648.63,462,651.77,460.66,654.93Z" transform="translate(0 0)"/><path class="cls-9" d="M442.33,703l3.31.49c1-3.07,2.13-6.26,3.28-9.49l-3.29-.52C444.47,696.7,443.36,699.91,442.33,703Z" transform="translate(0 0)"/><path class="cls-9" d="M448,686.89l3.28.53c1.13-3.06,2.34-6.24,3.57-9.45l-3.28-.56C450.35,680.63,449.15,683.81,448,686.89Z" transform="translate(0 0)"/><path class="cls-9" d="M467.51,639.05l3.25.63c1.41-3.18,2.82-6.3,4.21-9.33l-3.24-.66Q469.65,634.27,467.51,639.05Z" transform="translate(0 0)"/><path class="cls-9" d="M408.82,798.7l3,1a87.81,87.81,0,0,0,6.12-9l-3.14-.83A87,87,0,0,1,408.82,798.7Z" transform="translate(0 0)"/><path class="cls-9" d="M482.41,607.5l3.2.72c1.71-3.35,3.34-6.44,4.84-9.19l-3.18-.77C485.76,601,484.12,604.13,482.41,607.5Z" transform="translate(0 0)"/><path class="cls-9" d="M474.73,623.23l3.23.67c1.51-3.21,3-6.33,4.46-9.28l-3.22-.7C477.75,616.88,476.24,620,474.73,623.23Z" transform="translate(0 0)"/><path class="cls-9" d="M418.29,783.65l3.2.73c1.53-3,3-6.12,4.37-9.36l-3.26-.61C421.25,777.61,419.8,780.72,418.29,783.65Z" transform="translate(0 0)"/><path class="cls-9" d="M437.29,719.18l3.33.42c.84-3,1.81-6.2,2.87-9.54l-3.31-.47C439.11,713,438.14,716.18,437.29,719.18Z" transform="translate(0 0)"/><path class="cls-9" d="M425.17,767.92l3.28.54c1.16-3.13,2.23-6.34,3.19-9.57l-3.32-.43C427.37,761.65,426.31,764.83,425.17,767.92Z" transform="translate(0 0)"/><path class="cls-9" d="M430.14,751.86l3.33.37c.82-3.23,1.53-6.49,2.13-9.69l-3.36-.28C431.65,745.44,430.94,748.66,430.14,751.86Z" transform="translate(0 0)"/><path class="cls-9" d="M433.37,735.56l3.36.27c.52-2.87,1.23-6.1,2.11-9.6l-3.34-.37C434.61,729.39,433.9,732.66,433.37,735.56Z" transform="translate(0 0)"/><path class="cls-9" d="M640,716.93a68.58,68.58,0,0,0-15,1.39l1,2.14a64.23,64.23,0,0,1,13.91-1.29Z" transform="translate(0 0)"/><path class="cls-9" d="M662.73,723.59l1.67-2c-1.34-.51-2.63-1-3.81-1.33a75.46,75.46,0,0,0-10.17-2.43l-.82,2.18a70,70,0,0,1,9.55,2.28C660.25,722.69,661.46,723.11,662.73,723.59Z" transform="translate(0 0)"/><path class="cls-9" d="M671.51,867.27l1.51,2c4.41-1.46,8.82-3,13.12-4.45l-1.58-2C680.29,864.33,675.9,865.82,671.51,867.27Z" transform="translate(0 0)"/><path class="cls-9" d="M693.5,859.67l1.62,2c4.57-1.65,8.89-3.27,12.84-4.81l-1.71-1.94C702.32,856.42,698,858,693.5,859.67Z" transform="translate(0 0)"/><path class="cls-9" d="M714.89,851.41l1.8,1.9c5.08-2.13,9.18-4,12.21-5.65l-2.12-1.75C723.85,847.47,719.85,849.32,714.89,851.41Z" transform="translate(0 0)"/><path class="cls-9" d="M586.87,895.65c3-1.4,6-2.7,8.86-3.87L594,889.87c-2.51,1-5.12,2.17-7.78,3.38C586.39,894.05,586.63,894.85,586.87,895.65Z" transform="translate(0 0)"/><path class="cls-9" d="M602.86,886.46l1.58,2a99,99,0,0,1,13.17-3.75l-1-2.15A102.7,102.7,0,0,0,602.86,886.46Z" transform="translate(0 0)"/><path class="cls-9" d="M690.66,737.25c3.42,1.89,7.17,4,11.15,6.31l2.22-1.69c-4-2.31-7.76-4.44-11.2-6.35Z" transform="translate(0 0)"/><path class="cls-9" d="M626.28,880.59l1.13,2.12c3.9-.92,8.53-2.14,13.76-3.61L639.84,877C634.67,878.49,630.11,879.69,626.28,880.59Z" transform="translate(0 0)"/><path class="cls-9" d="M649.12,874.33l1.39,2c4.29-1.28,8.78-2.67,13.35-4.13l-1.46-2C657.85,871.68,653.39,873.06,649.12,874.33Z" transform="translate(0 0)"/><path class="cls-9" d="M613.36,724.48c1.11-.48,2.33-1,3.65-1.46l-1.63-2a63.55,63.55,0,0,0-6.16,2.61C610.6,723.94,612,724.22,613.36,724.48Z" transform="translate(0 0)"/><path class="cls-9" d="M673.09,725.34l-1.94,1.84c3.46,1.6,7.38,3.56,11.66,5.82l2.1-1.76C680.58,729,676.6,727,673.09,725.34Z" transform="translate(0 0)"/><path class="cls-9" d="M819,825.1c-1.62.8-5.48,1.74-11.8,2.89l.89,2.16C815,828.9,819,827.9,821,826.9c.41-.2.82-.42,1.22-.65L820,824.56C819.68,824.75,819.34,824.93,819,825.1Z" transform="translate(0 0)"/><path class="cls-9" d="M786,790.08l-2.12,1.75c4.53,2.42,8.4,4.35,11.84,5.92l1.92-1.85C794.27,794.36,790.46,792.46,786,790.08Z" transform="translate(0 0)"/><path class="cls-9" d="M806.23,799.31l-.11,0-1.45,2,.11,0a64.74,64.74,0,0,1,12,4.91l2.17-1.73A67.93,67.93,0,0,0,806.23,799.31Z" transform="translate(0 0)"/><path class="cls-9" d="M825.94,809.87,823,811a9.72,9.72,0,0,1,2.23,3.91,6.71,6.71,0,0,1-.36,4.56l3.25.63a8.28,8.28,0,0,0,.45-5.58A11.78,11.78,0,0,0,825.94,809.87Z" transform="translate(0 0)"/><path class="cls-9" d="M790.14,830.79l-7,1.11.8,2.18,7-1.11c2.51-.39,4.94-.77,7.26-1.15l-.79-2.18Z" transform="translate(0 0)"/><path class="cls-9" d="M759,836.12l1,2.15c4.19-.83,8.8-1.67,14.1-2.57l-.84-2.18C767.87,834.43,763.22,835.28,759,836.12Z" transform="translate(0 0)"/><path class="cls-9" d="M735.52,842.09l1.57,2c3.63-1.26,8.1-2.51,13.29-3.74l-1.13-2.11A140.1,140.1,0,0,0,735.52,842.09Z" transform="translate(0 0)"/><path class="cls-9" d="M737.91,762l-7.73-4.66L727.91,759l7.72,4.65,3.15,1.9,2.27-1.66Z" transform="translate(0 0)"/><path class="cls-9" d="M746.31,770.12c3.7,2.22,7.35,4.41,10.93,6.53l2.25-1.68c-3.57-2.12-7.22-4.3-10.91-6.52Z" transform="translate(0 0)"/><path class="cls-9" d="M778.18,785.8c-3.39-1.9-7-4-11.09-6.35l-2.23,1.68c4.08,2.39,7.73,4.48,11.14,6.39Z" transform="translate(0 0)"/><path class="cls-9" d="M722.64,752.83c-3.69-2.2-7.35-4.38-11-6.5L709.44,748c3.6,2.12,7.26,4.29,10.93,6.5Z" transform="translate(0 0)"/><path class="cls-13" d="M739.14,628.61S579,663.24,492.47,647.72c-6.45-1.16-59.06-8.24-59.06-8.24s29.69-74.84,21.39-124.54c-2.17-13.19-6.86-39.19-20.89-62.8-5-8.45-10.15-17.05-15.21-25.41-15-24.75-29-47.31-35.19-57.2a91.83,91.83,0,0,1,25.81-7.73l.49,0c14.22-1.58,32.35-4.07,51.71-7.94h.05c24.9-5,51.84-12.34,75.16-23l21.66-8,22.74-8.42s28,6.72,57,34.28A172.74,172.74,0,0,1,614,364.74a169.87,169.87,0,0,0,23.51,7.85A96,96,0,0,0,653.28,365c18.4,22.65,35.28,54.95,43.54,100.64,7.44,41.5,20.57,89.91,30.27,123.14C734,612.61,739.14,628.61,739.14,628.61Z" transform="translate(0 0)"/><path class="cls-4" d="M504.43,371.33c-29.69-1.68-36.5-11.08-42.86-17.5,24.9-5,51.84-12.34,75.16-23l14.2-5.29c4.07,0,14.1,5,14.1,14.93C565,353.85,543.91,373.58,504.43,371.33Z" transform="translate(0 0)"/><path class="cls-5" d="M599.42,399.84l52.1-15.49S692,424.76,659,432.66C623.52,441.16,599.42,399.84,599.42,399.84Z" transform="translate(0 0)"/><path class="cls-4" d="M543.76,232.69s21.88-11,12.91-33.08c0,0-7.34,8.38-14,9.21,0,0,16.91-30.39-34.79-47.32,0,0,6,16.72-.1,22.29,0,0-13.65-19.35-33.89-23.34,0,0,3,33.9-28.6,40.76-22.58,4.88-51.75,22.29-59.8,50.91,0,0-13.11-2.51-18,.91,0,0,16.81,1.88,19.13,9,0,0-7.06-2.38-12.37.62,0,0,11.87,1.63,13.71,7.8s46.79,53.31,73.9,61.17S543.76,232.69,543.76,232.69Z" transform="translate(0 0)"/><path class="cls-7" d="M473.62,338.78l3.62,13.83c.91,3.51,4.83,6.37,10,7.27,44.85,7.76,64.62-10.74,66.85-17.91-5.77-1.53-108.52-29.14-125.35-55.3C428.77,286.67,439.6,321.85,473.62,338.78Z" transform="translate(0 0)"/><path class="cls-7" d="M556.75,261.64A34.77,34.77,0,0,1,565,272.82a26,26,0,0,1,2.41,10.67l.17,24.19c.06,9-8.52,17-21.33,19.94-14.7,3.33-35.28,6.17-56.37,3.12C450.11,325,431.07,293,431.07,293s-16.59-33.19,16.79-56.08c23.13-15.86,54.15-19,71-19.39,7.24-.18,14,2.33,17.56,6.53l12.79,15.15a34.26,34.26,0,0,1,2.72,3.69,27.58,27.58,0,0,1,4.49,13.38Z" transform="translate(0 0)"/><path class="cls-4" d="M509.49,246.23s-31.6-8.86-39.46,8.58l4.86,2.67s10.48-13.33,35.63-6.62Z" transform="translate(0 0)"/><path class="cls-8" d="M556.75,261.64A34.77,34.77,0,0,1,565,272.82c-6.26-1-17.26-.4-36.06,6.55,0,0,7.26-8.51,17.82-11.4,2.83-.78,3.73-3.15,1.78-4.73l-13.06-10.52s.71-3,4.7-5.05A98.18,98.18,0,0,1,552,242.88a27.58,27.58,0,0,1,4.49,13.38Z" transform="translate(0 0)"/><path class="cls-4" d="M548.83,239.51A70.26,70.26,0,0,0,536,244.92L537.6,249a52.48,52.48,0,0,1,13.65-5.34c2.12-.5,3.22-2,2.39-3.19l0,0C552.84,239.35,550.7,238.92,548.83,239.51Z" transform="translate(0 0)"/><path class="cls-12" d="M558.76,282.81l-56.3,10.71s17.71,17.84,46.29,9.83C571.16,297.07,558.76,282.81,558.76,282.81Z" transform="translate(0 0)"/><path class="cls-8" d="M542.68,327.81s-35.3,6-71.77-20.44c0,0-1.61,13.65,18,27.58s65.25,7,65.25,7Z" transform="translate(0 0)"/><path class="cls-7" d="M441.93,284.07s-17.87-10.29-29.36-.58,14.27,37.08,32.66,25.91S441.93,284.07,441.93,284.07Z" transform="translate(0 0)"/><path class="cls-4" d="M509.48,259.4s-7-5.6-15.66-3.37c-12.67,3.24-10.91,11-10.91,11S488.57,252.6,509.48,259.4Z" transform="translate(0 0)"/><path class="cls-4" d="M540.6,256.48s4.65-9.15,14.75-2.14C555.35,254.34,546.36,250.51,540.6,256.48Z" transform="translate(0 0)"/><path class="cls-4" d="M435,246.81s13.7,11,2.57,22.48l11.53,17.61-11.93,2-9.91-9.76-7.66-25.25S428.86,242.38,435,246.81Z" transform="translate(0 0)"/><path class="cls-13" d="M724.7,264.22s-1.44,4.79-4.42,12.4c-9.7,24.57-35.74,78.47-82.75,96A169.87,169.87,0,0,1,614,364.74c-19.8-8.24-44.62-23.13-42.36-45.66,0,0,40.33-44.49,57.43-75.8,1.58-2.85,2.94-5.61,4.06-8.21l75,23.88Z" transform="translate(0 0)"/><path class="cls-4" d="M724.7,264.22s-1.44,4.79-4.42,12.4c-17.6-9-73.5-27.56-91.19-33.34,1.58-2.85,2.94-5.61,4.06-8.21l75,23.88Z" transform="translate(0 0)"/><path class="cls-5" d="M724.71,264.22S703.52,335,653.27,365a167.88,167.88,0,0,0-15.11-16.33c38.22-30.25,61.64-72.8,70-89.74Z" transform="translate(0 0)"/><path class="cls-13" d="M441.49,408.51a67,67,0,0,1-3.12,9.89l-4.46,33.74-5.06,32.47L427.41,494c-8.53,7.94-37.4,8.66-64.7,7.34v0c-28.65-1.37-55.59-5-55.59-5s.72-3.66,2.35-9.92a335.81,335.81,0,0,1,30.27-76.52,94.21,94.21,0,0,1,43.77-40.33,91.83,91.83,0,0,1,25.81-7.73l.49,0C446.9,364.08,445.19,392.9,441.49,408.51Z" transform="translate(0 0)"/><path class="cls-4" d="M428.85,484.61,427.41,494c-8.53,7.94-37.4,8.66-64.7,7.34v0c-28.65-1.37-55.59-5-55.59-5s.72-3.66,2.35-9.92c12,2.1,40.43,4.82,65.75,5.05C403.66,491.68,420.19,487.19,428.85,484.61Z" transform="translate(0 0)"/><path class="cls-4" d="M543.1,328.46s58.56-5.95,95.76,16,74.14,68.09,51.65,95.76l9.11,40.07s61.25-63.89-4.47-125.78c-44.22-41.64-100.74-42.66-129.3-39.86-3.11,5.93-10.12,10.4-19.41,12.53Z" transform="translate(0 0)"/><path class="cls-4" d="M401.86,363.2s16.77-25.44,48-22.51,124.83,87.37,105,149.46-100.69,68.7-100.69,68.7-15.67-15.77,1.94-30.43c0,0,53.15-8.66,67.5-49.08s-58-122.42-84.55-124.93c-9.57-.91-16.76,5.85-16.76,5.85S411.11,362.29,401.86,363.2Z" transform="translate(0 0)"/><path class="cls-5" d="M739.15,628.61S579,663.25,492.47,647.71c-6.45-1.15-59.08-8.22-59.08-8.22s29.72-74.86,21.43-124.57c-2.2-13.17-6.89-39.18-20.9-62.8L427.42,494c-8.54,7.92-37.4,8.65-64.7,7.32h0s43.57-15.41,48.27-50a72.23,72.23,0,0,1,7.72-24.6c8.38-15.67,19.91-21.4,19.91-21.4s1.07,1.13,2.86,3.17c8.49,9.63,33.09,39.38,36,63.33,3.5,29,17.32,90.77,84.74,127.34C599.69,619.53,725,616.34,727,589.6a6.89,6.89,0,0,1,.1-.81C734,612.62,739.15,628.61,739.15,628.61Z" transform="translate(0 0)"/></svg>